<?xml version="1.0" encoding="UTF-8"?>
<svg version="1.1" xmlns="http://www.w3.org/2000/svg" width="566" height="440">
<path d="M0 0 C2.56850095 0.00535866 5.13682656 0.00001667 7.70532227 -0.00634766 C22.76820859 -0.01436961 37.61761286 0.5103031 52.51196289 2.94287109 C53.62128174 3.12100342 54.73060059 3.29913574 55.87353516 3.48266602 C59.13098666 4.01582316 62.38446598 4.56784362 65.63696289 5.13037109 C66.53302246 5.28376953 67.42908203 5.43716797 68.35229492 5.59521484 C90.13613541 9.4301889 113.95453854 16.84477658 129.63696289 33.13037109 C130.50321289 32.30537109 131.36946289 31.48037109 132.26196289 30.63037109 C153.37420618 12.48502147 182.99213275 6.77156064 209.57446289 2.38037109 C210.25758545 2.2647583 210.94070801 2.14914551 211.64453125 2.0300293 C225.68748626 -0.13840449 239.96603647 -0.03073026 254.13623047 0 C257.0668659 0.00535721 259.99734771 0.00002168 262.92797852 -0.00634766 C271.70001191 -0.01133276 280.47042355 0.05640752 289.23461914 0.45068359 C291.20893921 0.53600342 291.20893921 0.53600342 293.22314453 0.62304688 C296.82995878 1.15905202 298.78818606 1.88081197 301.63696289 4.13037109 C303.91508621 7.33098306 303.93752897 10.34961767 304.05102539 14.20849609 C304.08969727 15.36865234 304.12836914 16.52880859 304.16821289 17.72412109 C304.21461914 19.53396484 304.21461914 19.53396484 304.26196289 21.38037109 C304.30063477 22.60240234 304.33930664 23.82443359 304.37915039 25.08349609 C304.47338397 28.0989705 304.55899744 31.11443937 304.63696289 34.13037109 C305.49451172 34.14495361 306.35206055 34.15953613 307.2355957 34.17456055 C310.42656702 34.23572587 313.61689876 34.30989871 316.80737305 34.39282227 C318.18648956 34.42601302 319.56574 34.45406327 320.94506836 34.47680664 C322.93118595 34.51045752 324.91692848 34.56431838 326.90258789 34.61865234 C328.09658203 34.64483643 329.29057617 34.67102051 330.52075195 34.69799805 C333.88590922 35.1649123 335.30476229 35.68960732 337.63696289 38.13037109 C338.54053833 40.92740554 338.76278554 43.47334353 338.76559734 46.40082359 C338.76882179 47.25155272 338.77204624 48.10228184 338.77536839 48.97879064 C338.77381979 49.90854699 338.77227119 50.83830334 338.77067566 51.79623413 C338.77294122 52.78772166 338.77520677 53.77920919 338.77754098 54.80074179 C338.78388544 58.13247242 338.78305133 61.46416242 338.78222656 64.79589844 C338.78521777 67.1808121 338.7886202 69.56572528 338.79240417 71.95063782 C338.80033255 77.76209604 338.80345899 83.57354187 338.80401655 89.38500522 C338.80449173 94.10883048 338.80654656 98.83265239 338.80971718 103.55647659 C338.81852357 116.94947112 338.82313657 130.34245764 338.8223867 143.73545508 C338.82232677 144.81845804 338.82232677 144.81845804 338.82226562 145.92333984 C338.82222474 146.64622336 338.82218386 147.36910689 338.82214174 148.11389597 C338.82173526 159.83018129 338.83130537 171.54643447 338.84540399 183.2627105 C338.85976623 195.29298041 338.86667426 207.32323465 338.86581022 219.35351336 C338.8654782 226.10757023 338.86822745 232.8615934 338.87898827 239.61564255 C338.88865314 245.96690054 338.88875947 252.31808729 338.88147163 258.66934776 C338.8804238 261.00181494 338.8828004 263.33428652 338.88883209 265.66674614 C338.89652683 268.84809538 338.89192378 272.02919703 338.88420105 275.21054077 C338.88934461 276.13583568 338.89448818 277.06113059 338.8997876 278.01446474 C338.87455282 282.71125402 338.79878818 286.85102984 336.63696289 291.13037109 C332.89546477 294.26536451 329.80996501 294.49974075 325.02635193 294.47767639 C324.37561724 294.47882853 323.72488256 294.47998068 323.05442864 294.48116773 C320.88170362 294.48142513 318.70972432 294.46027259 316.53710938 294.43920898 C314.97638232 294.43508711 313.41565119 294.43231878 311.85491943 294.43080139 C308.49798883 294.42471269 305.14128038 294.40921129 301.78442192 294.38643074 C296.47755017 294.35062485 291.17075795 294.33665527 285.86378479 294.32579041 C275.55869251 294.30166711 265.25376106 294.25496001 254.94876099 294.20619965 C241.82795056 294.14535648 228.7071193 294.09572754 215.58620507 294.06420511 C210.30940715 294.05080695 205.03279072 294.02691266 199.75607479 293.99480259 C196.4759778 293.97671343 193.19589231 293.96680434 189.91575623 293.95903587 C188.39354887 293.95368904 186.87134919 293.9448674 185.34918404 293.9323349 C183.27289758 293.9156855 181.19693468 293.91135391 179.12059021 293.91004944 C177.9582508 293.9043094 176.79591139 293.89856936 175.59834957 293.89265537 C172.68429472 294.12657168 171.05746175 294.53725461 168.63696289 296.13037109 C167.17320728 298.06145058 167.17320728 298.06145058 166.01196289 300.25537109 C164.78540039 302.45068359 164.78540039 302.45068359 163.63696289 304.13037109 C162.97696289 304.13037109 162.31696289 304.13037109 161.63696289 304.13037109 C161.30696289 305.12037109 160.97696289 306.11037109 160.63696289 307.13037109 C148.53526024 316.5183586 135.35672852 317.18362347 120.63696289 316.13037109 C111.20283241 314.83754581 102.89306584 309.19652721 96.63696289 302.13037109 C96.2509642 300.94666428 95.86496552 299.76295746 95.4672699 298.54338074 C94.46950802 296.56637236 94.46950802 296.56637236 92.63696289 295.13037109 C87.59182975 294.02755319 82.52622098 294.22931975 77.39111328 294.30737305 C75.80259153 294.3060334 74.21406978 294.30156128 72.62556458 294.29418945 C69.20503614 294.28493874 65.78553987 294.29766231 62.36512947 294.32732582 C56.95704502 294.37388202 51.54969667 294.37051259 46.14146423 294.3601532 C36.61301332 294.34832824 27.08505566 294.37925127 17.55670166 294.41931152 C3.21387008 294.47911553 -11.12898954 294.50356709 -25.47193724 294.49106568 C-30.84813779 294.48795489 -36.2237084 294.50643016 -41.59978664 294.54205859 C-44.94443076 294.5606017 -48.28894942 294.56293407 -51.63363838 294.5611496 C-53.18446254 294.56380832 -54.7352926 294.57337374 -56.286026 294.59036064 C-58.403963 294.61269272 -60.52052751 294.61043477 -62.63853455 294.60224915 C-63.82337401 294.6076537 -65.00821348 294.61305826 -66.22895718 294.61862659 C-70.05209389 294.02302356 -71.69353971 292.89742734 -74.36303711 290.13037109 C-75.29798793 287.33570584 -75.48886789 284.77476814 -75.49167156 281.84150791 C-75.49489601 280.98667869 -75.49812045 280.13184947 -75.50144261 279.25111634 C-75.49989401 278.31678692 -75.49834541 277.3824575 -75.49674988 276.41981506 C-75.49901543 275.42353842 -75.50128099 274.42726177 -75.5036152 273.40079492 C-75.50995978 270.05291084 -75.50912554 266.70506718 -75.50830078 263.35717773 C-75.51129196 260.96078946 -75.51469439 258.56440168 -75.51847839 256.16801453 C-75.52640663 250.3288185 -75.52953319 244.489632 -75.53009077 238.6504317 C-75.53056591 233.90466803 -75.53262055 229.15890768 -75.5357914 224.41314507 C-75.54459736 210.95974735 -75.5492108 197.50635762 -75.54846092 184.05295701 C-75.54842097 183.32770531 -75.54838101 182.60245362 -75.54833984 181.85522461 C-75.54829896 181.12908816 -75.54825808 180.40295172 -75.54821596 179.65481114 C-75.54780938 167.88288485 -75.55738205 156.11099053 -75.57147821 144.33907349 C-75.58583594 132.2534378 -75.59274875 120.16781772 -75.59188443 108.08217329 C-75.59155228 101.29629029 -75.59430738 94.51044082 -75.60506248 87.72456551 C-75.61472067 81.34458357 -75.61483832 74.96467258 -75.60754585 68.58468819 C-75.60649722 66.24051307 -75.60887935 63.89633359 -75.61490631 61.55216599 C-75.62258967 58.35732997 -75.61800564 55.16274121 -75.61027527 51.96791077 C-75.61541883 51.03581207 -75.62056239 50.10371337 -75.62586182 49.14336926 C-75.59609794 43.59394798 -75.48442173 39.25175571 -71.36303711 35.13037109 C-68.38208008 34.81152344 -68.38208008 34.81152344 -64.60522461 34.71630859 C-63.94217316 34.69694244 -63.2791217 34.67757629 -62.59597778 34.65762329 C-60.47679534 34.59781156 -58.35755861 34.55143722 -56.23803711 34.50537109 C-54.80181542 34.46719264 -53.36561666 34.42814098 -51.92944336 34.38818359 C-48.40751775 34.29210984 -44.88542103 34.20808468 -41.36303711 34.13037109 C-41.35369141 33.30311523 -41.3443457 32.47585937 -41.3347168 31.62353516 C-41.28103392 27.87520694 -41.19738001 24.12812947 -41.11303711 20.38037109 C-41.09885742 19.07841797 -41.08467773 17.77646484 -41.07006836 16.43505859 C-41.0378418 15.18466797 -41.00561523 13.93427734 -40.97241211 12.64599609 C-40.95146484 11.49389648 -40.93051758 10.34179688 -40.90893555 9.15478516 C-40.25363088 5.52423316 -39.2525154 4.35557132 -36.36303711 2.13037109 C-25.42157089 -1.51678431 -11.45585468 -0.02831564 0 0 Z M-26.36303711 15.13037109 C-26.36303711 89.71037109 -26.36303711 164.29037109 -26.36303711 241.13037109 C-2.10803711 242.12037109 -2.10803711 242.12037109 22.63696289 243.13037109 C32.42194556 244.23882616 41.98165853 245.37989796 51.63696289 247.13037109 C52.71719727 247.32002441 53.79743164 247.50967773 54.91040039 247.70507812 C78.79556601 251.95660924 101.83863932 258.23120931 123.63696289 269.13037109 C124.13196289 233.49037109 124.13196289 233.49037109 124.63696289 197.13037109 C128.59696289 196.80037109 132.55696289 196.47037109 136.63696289 196.13037109 C136.63172607 198.02722656 136.62648926 199.92408203 136.62109375 201.87841797 C136.60492227 208.16879696 136.59345706 214.45917101 136.58515072 220.74956512 C136.57994794 224.56075713 136.57289795 228.37192649 136.56152344 232.18310547 C136.55060154 235.86597413 136.54466646 239.5488211 136.54208565 243.23170471 C136.54024809 244.6318038 136.53665999 246.0319018 136.53123283 247.43199158 C136.50524792 254.41787879 136.52807373 261.223795 137.63696289 268.13037109 C138.51352539 267.79005859 139.39008789 267.44974609 140.29321289 267.09912109 C196.49338879 245.51164622 196.49338879 245.51164622 219.19946289 248.75537109 C224.55990882 249.40009827 228.68697688 248.23831769 233.38696289 245.56787109 C243.65198253 241.02757394 257.73724768 242.8013363 268.82446289 242.56787109 C270.74960081 242.52459318 272.67473115 242.48097622 274.59985352 242.43701172 C279.27881158 242.33088741 283.9578486 242.22935787 288.63696289 242.13037109 C290.30417541 238.79594606 289.7695515 235.05186188 289.75721741 231.38595581 C289.75807183 230.46953123 289.75892626 229.55310665 289.75980657 228.60891163 C289.76146163 225.51952835 289.75593956 222.43019864 289.75048828 219.34082031 C289.75020639 217.13365683 289.75036418 214.92649326 289.75093079 212.71932983 C289.75121868 206.71136725 289.74532322 200.70342448 289.73835683 194.69546652 C289.73212198 188.42272128 289.73151939 182.14997564 289.73033142 175.87722778 C289.72757257 165.34360415 289.72131871 154.80998703 289.71240234 144.27636719 C289.70322694 133.4254561 289.69614673 122.57454699 289.69189453 111.72363281 C289.69163181 111.05507125 289.69136908 110.38650969 289.6910984 109.69768868 C289.68979339 106.343798 289.68852967 102.98990731 289.6872865 99.63601661 C289.67682298 71.80079635 289.65922428 43.96558424 289.63696289 16.13037109 C252.06207533 3.30428044 192.00204644 15.36178768 157.21508789 31.36474609 C152.70689633 33.58931224 148.63621384 36.09554128 144.63696289 39.13037109 C143.66758789 39.83162109 142.69821289 40.53287109 141.69946289 41.25537109 C138.65665423 44.02156078 137.70938262 46.01221051 137.44165039 50.14599609 C137.46485352 51.21333984 137.48805664 52.28068359 137.51196289 53.38037109 C137.55321289 55.27787109 137.59446289 57.17537109 137.63696289 59.13037109 C133.01696289 59.13037109 128.39696289 59.13037109 123.63696289 59.13037109 C123.69883789 57.60412109 123.76071289 56.07787109 123.82446289 54.50537109 C123.78881189 48.17731809 122.3033157 44.91298108 117.94946289 40.25537109 C112.46871572 35.8312934 105.8980112 32.99080399 99.55297852 30.02929688 C97.96075851 29.28228438 96.38277796 28.50501093 94.80883789 27.72021484 C67.30549383 14.91551424 32.49051343 12.80746691 2.51196289 12.88037109 C1.5098175 12.88167023 1.5098175 12.88167023 0.48742676 12.88299561 C-13.11725924 12.62039472 -13.11725924 12.62039472 -26.36303711 15.13037109 Z M-59.36303711 48.13037109 C-61.1386187 53.932567 -61.1386187 53.932567 -61.60913277 59.50561428 C-61.61311486 60.30331562 -61.61709696 61.10101697 -61.62119973 61.92289108 C-61.61537404 62.77796456 -61.60954836 63.63303803 -61.60354614 64.51402283 C-61.60525499 65.43880308 -61.60696384 66.36358334 -61.60872447 67.31638724 C-61.61200937 70.40411978 -61.6010321 73.4916333 -61.59008789 76.5793457 C-61.58952356 78.79709874 -61.58984076 81.01485216 -61.5909729 83.23260498 C-61.59154656 89.24649426 -61.57978995 95.26030371 -61.56582499 101.27417445 C-61.55331996 107.56156811 -61.5521473 113.84896362 -61.54977417 120.1363678 C-61.54426485 130.68719843 -61.53177358 141.23800292 -61.51391602 151.78881836 C-61.49554546 162.65405125 -61.48139471 173.51927619 -61.47290039 184.38452148 C-61.47237494 185.05475642 -61.4718495 185.72499137 -61.47130813 186.41553646 C-61.46869797 189.778058 -61.46617057 193.14057959 -61.46368432 196.50310123 C-61.44278089 224.37887822 -61.40760365 252.2546226 -61.36303711 280.13037109 C-60.11482823 280.13533631 -60.11482823 280.13533631 -58.84140301 280.14040184 C-38.61152243 280.22155442 -18.38171736 280.31362129 1.84805775 280.41789818 C11.63094831 280.46806096 21.41383033 280.51450341 31.19677734 280.55224609 C39.72168371 280.58514462 48.24652455 280.62496391 56.77135867 280.67316115 C61.28691407 280.69844747 65.80242589 280.72022241 70.31803322 280.73371506 C74.56563462 280.74651612 78.81308668 280.76854921 83.060606 280.79775429 C84.62189752 280.80684541 86.1832131 280.81252386 87.74452972 280.81458473 C89.87187496 280.81789651 91.99879402 280.83334382 94.12605286 280.85189819 C95.91387035 280.86019433 95.91387035 280.86019433 97.73780537 280.86865807 C100.63696289 281.13037109 100.63696289 281.13037109 103.63696289 283.13037109 C104.41040039 285.11865234 104.41040039 285.11865234 105.01196289 287.44287109 C107.08509248 294.14563205 111.60080543 297.76405251 117.63696289 301.13037109 C127.34908782 304.32562409 136.11634236 303.53267874 145.63696289 300.13037109 C151.78706261 296.82753976 155.97381466 292.44520198 158.26196289 285.81787109 C158.71571289 284.60099609 159.16946289 283.38412109 159.63696289 282.13037109 C163.00255536 281.00850694 165.56137848 280.99148323 169.10990906 280.97215271 C169.76833298 280.96722305 170.4267569 280.9622934 171.10513306 280.95721436 C173.32236466 280.94181605 175.53956763 280.93347144 177.75683594 280.92504883 C179.36918549 280.91533479 180.98153249 280.9051894 182.59387684 280.89464664 C186.91767359 280.86756891 191.24148052 280.84640719 195.56531525 280.82645416 C199.6203477 280.80685005 203.67534064 280.78193299 207.73034668 280.75744629 C219.59502239 280.68890536 231.45974623 280.62891239 243.32446289 280.56787109 C283.07915039 280.35130859 283.07915039 280.35130859 323.63696289 280.13037109 C323.63696289 203.90037109 323.63696289 127.67037109 323.63696289 49.13037109 C317.03696289 49.13037109 310.43696289 49.13037109 303.63696289 49.13037109 C303.62665543 51.62266266 303.61634796 54.11495422 303.60572815 56.68276978 C303.5082589 80.13846545 303.40542274 103.59413319 303.29762363 127.04978371 C303.2423289 139.10935119 303.18885304 151.16892163 303.13964844 163.22851562 C303.09676069 173.73877832 303.05047109 184.24901957 303.00008434 194.75924909 C302.97352042 200.32509456 302.94866825 205.89093587 302.92788887 211.45680618 C302.90827894 216.69504194 302.88412213 221.93323701 302.85647202 227.17143631 C302.84712465 229.09430196 302.8394411 231.01717652 302.83354378 232.94005585 C302.82524321 235.56543859 302.81095557 238.19072361 302.79518127 240.81607056 C302.79420317 241.57678317 302.79322506 242.33749578 302.79221731 243.12126029 C302.76051103 247.22539955 302.43273989 251.10310175 301.63696289 255.13037109 C298.40284812 256.08866931 295.4704701 256.26566773 292.10351562 256.28808594 C290.98972031 256.29834808 289.87592499 256.30861023 288.7283783 256.31918335 C286.91775658 256.33013535 286.91775658 256.33013535 285.07055664 256.34130859 C282.47224377 256.36944396 279.87393659 256.39810857 277.27563477 256.42724609 C273.21340044 256.46906028 269.15123269 256.50486321 265.08886719 256.53173828 C240.54052271 256.70791894 216.48581759 258.11266026 192.57446289 263.94287109 C191.07361052 264.29843923 189.57271463 264.65382369 188.07177734 265.0090332 C172.37504506 268.77019217 157.83967349 273.36973878 143.63696289 281.13037109 C142.85063477 281.55833984 142.06430664 281.98630859 141.25415039 282.42724609 C138.26260973 284.0234569 138.26260973 284.0234569 135.63696289 286.13037109 C131.242413 286.92609206 127.22641566 286.97670309 123.23071289 284.84912109 C121.48289187 283.63228367 119.73554274 282.41476831 117.98852539 281.19677734 C82.61380649 259.38649028 33.69743785 255.56751879 -6.67944336 254.92724609 C-7.56341293 254.91166656 -8.44738251 254.89608704 -9.35813904 254.8800354 C-13.76108006 254.80434962 -18.16234967 254.75112916 -22.56591797 254.73535156 C-24.18579999 254.71405082 -25.80567374 254.69210837 -27.42553711 254.66943359 C-28.54086571 254.67713776 -28.54086571 254.67713776 -29.6787262 254.68499756 C-32.83548632 254.62400714 -34.93336517 254.42933805 -37.55496597 252.60522079 C-40.05854272 249.17837766 -39.92316884 246.10383481 -39.88201904 242.01861572 C-39.88952029 241.194404 -39.89702155 240.37019228 -39.90475011 239.52100444 C-39.92507204 236.75544755 -39.9169159 233.99070702 -39.90893555 231.22509766 C-39.91766812 229.24422899 -39.92815279 227.26336738 -39.94026184 225.28251648 C-39.96818112 219.90063772 -39.97152521 214.51898845 -39.97054195 209.13704777 C-39.97366596 203.51422517 -39.99927347 197.89150671 -40.02252197 192.26873779 C-40.0631248 181.61929104 -40.08343276 170.96990558 -40.09649587 160.32039332 C-40.1123514 148.19713875 -40.15076092 136.07398872 -40.19108915 123.9507947 C-40.27354675 99.0106855 -40.32680222 74.07058656 -40.36303711 49.13037109 C-46.63303711 48.80037109 -52.90303711 48.47037109 -59.36303711 48.13037109 Z " fill="#030305" transform="translate(155.363037109375,79.86962890625)"/>
<path d="M0 0 C12.86737779 10.80698134 21.80382392 24.4155096 23.9375 41.3125 C25.08527225 59.98811619 19.98561669 74.17669189 10.9375 90.3125 C12.59088336 92.45168455 12.59088336 92.45168455 14.9375 94.3125 C17.5713887 94.46768511 17.5713887 94.46768511 20.3125 93.875 C25.10355394 93.24088992 27.89273729 93.33214853 31.9375 96.3125 C32.2675 97.3025 32.5975 98.2925 32.9375 99.3125 C33.9275 99.6425 34.9175 99.9725 35.9375 100.3125 C35.9375 100.9725 35.9375 101.6325 35.9375 102.3125 C36.46762695 102.51810547 36.99775391 102.72371094 37.54394531 102.93554688 C40.93570684 104.88674384 43.49800587 107.58794382 46.234375 110.34375 C46.82800842 110.93546997 47.42164185 111.52718994 48.03326416 112.13684082 C49.28293718 113.38515581 50.53009992 114.63598823 51.77490234 115.88916016 C53.68757952 117.81257997 55.61073119 119.72506099 57.53515625 121.63671875 C58.74803798 122.85092139 59.96029952 124.06574393 61.171875 125.28125 C61.74991882 125.85524536 62.32796265 126.42924072 62.92352295 127.02062988 C66.9375 131.08256566 66.9375 131.08256566 66.9375 133.3125 C67.9275 133.6425 68.9175 133.9725 69.9375 134.3125 C69.9375 134.9725 69.9375 135.6325 69.9375 136.3125 C70.5975 136.3125 71.2575 136.3125 71.9375 136.3125 C74.34829833 141.13409667 74.9205009 146.12250354 73.33203125 151.27734375 C72.1255415 154.174144 70.67832521 156.70126218 68.9375 159.3125 C68.2775 159.3125 67.6175 159.3125 66.9375 159.3125 C66.9375 159.9725 66.9375 160.6325 66.9375 161.3125 C62.1716792 163.88295427 57.54505483 166.3626968 51.97851562 165.2043457 C47.22462724 163.12707844 43.65549482 158.8510423 39.9375 155.3125 C38.94917679 154.37345322 38.94917679 154.37345322 37.94088745 153.41543579 C33.20535775 148.90044805 28.51815114 144.33893385 23.85717773 139.74707031 C22.19416042 138.11594917 20.52314554 136.49294451 18.84448242 134.87792969 C16.39637408 132.52100345 13.97544938 130.13891264 11.55859375 127.75 C10.80766953 127.037229 10.0567453 126.32445801 9.2830658 125.59008789 C5.03763295 121.32847587 3.08932045 118.34342968 2.82118225 112.25927734 C2.9375 110.3125 2.9375 110.3125 3.625 107.5 C4.21948421 105.13202126 4.21948421 105.13202126 2.25 102.9375 C0.15826638 101.08211852 0.15826638 101.08211852 -1.859375 101.53125 C-4.60454207 102.5047135 -7.05699151 103.81288028 -9.625 105.1875 C-24.41522184 112.55604166 -41.78119222 114.22891233 -57.75 109.25 C-64.48228813 106.94535927 -70.3756703 103.56061039 -76.0625 99.3125 C-76.72378906 98.82136719 -77.38507813 98.33023438 -78.06640625 97.82421875 C-79.75 96.5 -79.75 96.5 -82.0625 94.3125 C-82.0625 93.6525 -82.0625 92.9925 -82.0625 92.3125 C-83.5475 91.8175 -83.5475 91.8175 -85.0625 91.3125 C-90.43141533 84.62064865 -94.30736135 77.40298652 -97.0625 69.3125 C-97.454375 68.301875 -97.84625 67.29125 -98.25 66.25 C-102.82061615 49.72546468 -99.80828461 31.27922355 -91.47265625 16.4921875 C-88.70889287 12.18098693 -88.70889287 12.18098693 -87.0625 10.3125 C-86.4025 10.3125 -85.7425 10.3125 -85.0625 10.3125 C-84.80726563 9.72984375 -84.55203125 9.1471875 -84.2890625 8.546875 C-78.67572096 -1.67870259 -65.33913123 -7.00805081 -54.890625 -10.85546875 C-36.0809666 -16.26960015 -15.41370154 -11.73140837 0 0 Z M-56.0625 7.3125 C-56.77792969 7.63734375 -57.49335938 7.9621875 -58.23046875 8.296875 C-61.74490343 9.96127029 -65.17596883 11.66651309 -68.0625 14.3125 C-68.0625 14.9725 -68.0625 15.6325 -68.0625 16.3125 C-68.94421875 16.68955078 -68.94421875 16.68955078 -69.84375 17.07421875 C-76.03133185 20.52749947 -79.29618012 27.12289 -81.4375 33.625 C-85.15175701 47.57768721 -84.49901643 60.4968913 -77.625 73.4375 C-76.79827204 74.74689847 -75.94666033 76.04117629 -75.0625 77.3125 C-74.381875 78.323125 -73.70125 79.33375 -73 80.375 C-65.50587052 88.86518467 -54.22837954 94.34992418 -43.0625 95.3125 C-31.86391557 95.91885313 -22.79198382 93.94275968 -13.0625 88.3125 C-12.43472656 87.95414062 -11.80695313 87.59578125 -11.16015625 87.2265625 C-0.80729019 80.60636244 4.56120047 69.88846434 7.1875 58.25 C9.49061845 44.90851205 6.5918682 32.54351429 -1.0625 21.3125 C-8.13774837 12.72845125 -17.91648978 6.0296295 -29.0625 4.3125 C-38.21467311 3.71884553 -47.65432557 3.20415804 -56.0625 7.3125 Z M20.1875 110.5625 C18.72101763 112.22654154 18.72101763 112.22654154 19.0625 114.3125 C20.0443411 116.55670822 21.02957831 117.78616265 22.9375 119.3125 C23.5975 119.3125 24.2575 119.3125 24.9375 119.3125 C25.2675 120.3025 25.5975 121.2925 25.9375 122.3125 C26.5975 122.3125 27.2575 122.3125 27.9375 122.3125 C28.1953125 122.89515625 28.453125 123.4778125 28.71875 124.078125 C30.03584017 126.4927903 31.48838384 128.12990177 33.4375 130.0625 C34.0459375 130.67609375 34.654375 131.2896875 35.28125 131.921875 C36.83234277 133.52684088 36.83234277 133.52684088 38.9375 133.3125 C39.14503906 133.84488281 39.35257813 134.37726563 39.56640625 134.92578125 C41.50485475 138.30011753 44.11654272 140.7809024 46.875 143.5 C47.41318359 144.04591797 47.95136719 144.59183594 48.50585938 145.15429688 C50.94910618 147.58549314 52.62483927 149.20827976 55.9375 150.3125 C57.9175 147.8375 57.9175 147.8375 59.9375 145.3125 C53.91309882 138.06037725 47.2614756 131.41670321 40.61132812 124.74609375 C38.67116229 122.79607936 36.74190726 120.83565272 34.8125 118.875 C33.57878154 117.63476324 32.34442958 116.39515623 31.109375 115.15625 C30.53435242 114.56888062 29.95932983 113.98151123 29.36688232 113.37634277 C25.31567741 108.9953638 25.31567741 108.9953638 20.1875 110.5625 Z " fill="#030304" transform="translate(320.0625,157.6875)"/>
<path d="M0 0 C3.27152618 0.10986968 6.54190114 0.2404997 9.8125 0.375 C10.74126953 0.4059375 11.67003906 0.436875 12.62695312 0.46875 C13.51962891 0.50742188 14.41230469 0.54609375 15.33203125 0.5859375 C16.15421143 0.6173584 16.9763916 0.6487793 17.82348633 0.68115234 C20 1 20 1 23 3 C23.30227639 5.68975225 23.40689567 8.15128867 23.38526917 10.84432983 C23.39312271 12.07385075 23.39312271 12.07385075 23.40113491 13.32821047 C23.41516747 16.09053629 23.40777705 18.85239972 23.40063477 21.61474609 C23.40637343 23.58882566 23.4134546 25.56290171 23.42178345 27.53697205 C23.43693049 31.79587429 23.44266791 36.0546509 23.44125557 40.31357956 C23.43922785 47.04429896 23.45874878 53.77484857 23.48143005 60.50552368 C23.52247105 73.5791427 23.54102476 86.65274857 23.55760193 99.72641754 C23.57993286 116.36076687 23.61343067 132.99507726 23.66480106 149.6293627 C23.68475852 156.32360067 23.69430511 163.01775026 23.69575322 169.71201682 C23.69849914 173.8738563 23.70931976 178.03564686 23.72226334 182.1974659 C23.72655153 184.1308516 23.72739731 186.06424838 23.72458839 187.9976368 C23.72119899 190.63243912 23.72994414 193.26693115 23.74171448 195.90170288 C23.73773338 196.67076788 23.73375229 197.43983289 23.72965056 198.23220289 C23.7593721 201.9736948 23.9087259 204.82467801 26 208 C22.125 206.25 22.125 206.25 21 204 C20.90430978 201.36745197 20.86986636 198.76148243 20.87974548 196.12875366 C20.87889106 195.30625079 20.87803663 194.48374791 20.87715632 193.63632071 C20.87550184 190.86478449 20.88102238 188.09330804 20.88647461 185.32177734 C20.88675651 183.34121197 20.88659868 181.36064649 20.8860321 179.38008118 C20.88574426 173.98986656 20.89163893 168.59967402 20.89860606 163.20946455 C20.90484172 157.58134541 20.90544357 151.95322582 20.90663147 146.32510376 C20.90974416 135.66141771 20.91795671 124.99774186 20.92798096 114.33406031 C20.93914403 102.19639859 20.94465304 90.05873639 20.94967639 77.92107081 C20.96013937 52.94737468 20.97793817 27.97368834 21 3 C14.73 3 8.46 3 2 3 C1.25193718 7.48837691 0.87777296 11.15156993 0.88647461 15.62651062 C0.8865451 16.94624374 0.8866156 18.26597687 0.88668823 19.6257019 C0.89182297 21.07818633 0.89704442 22.53067046 0.90234375 23.9831543 C0.90426506 25.52375744 0.90572785 27.06436122 0.9067688 28.60496521 C0.9099303 31.92783956 0.91620289 35.25068849 0.92483521 38.57355309 C0.93849128 43.89561637 0.9442847 49.21767145 0.94897461 54.53974915 C0.96191852 67.80892216 0.98603806 81.07807281 1.01037598 94.347229 C1.03389177 107.27705495 1.05233563 120.20687504 1.0625 133.13671875 C1.0632893 134.03779657 1.0640786 134.93887439 1.06489182 135.8672576 C1.0915149 168.58792691 0.74855383 201.28741893 0 234 C-0.33 234 -0.66 234 -1 234 C-1.0228036 204.76744853 -1.04050503 175.53489769 -1.05106533 146.30233915 C-1.05231606 142.85260109 -1.05361038 139.40286304 -1.05493164 135.953125 C-1.05519395 135.26633284 -1.05545626 134.57954069 -1.05572652 133.87193665 C-1.06008 122.74574414 -1.06796578 111.61955679 -1.0771528 100.49336734 C-1.08649828 89.0802227 -1.09198264 77.66708225 -1.09408849 66.25393367 C-1.09539446 59.84194479 -1.09847319 53.42996762 -1.10573006 47.01798248 C-1.11250074 40.98690486 -1.1146148 34.95584379 -1.11310768 28.92476273 C-1.11338353 26.70756312 -1.11538245 24.49036298 -1.11920547 22.27316666 C-1.12415903 19.25299305 -1.12299207 16.2328825 -1.12025452 13.21270752 C-1.12316736 12.32944078 -1.1260802 11.44617404 -1.12908131 10.53614163 C-1.12709026 9.72699646 -1.12509921 8.91785128 -1.12304783 8.08418655 C-1.12342755 7.38702003 -1.12380727 6.6898535 -1.1241985 5.97156072 C-0.9923852 3.87912061 -0.5683541 2.01423936 0 0 Z " fill="#0F0F14" transform="translate(94,126)"/>
<path d="M0 0 C0.66 0.66 1.32 1.32 2 2 C1.9375 5.4375 1.9375 5.4375 1 9 C-1.0625 10.625 -1.0625 10.625 -4 12 C-10.54719662 15.3409563 -14.88569814 19.23158396 -18 26 C-18.66311004 28.88375763 -19.10592425 31.67210335 -19.3828125 34.6171875 C-20 37 -20 37 -21.89453125 38.828125 C-24 40 -24 40 -26.5625 39.875 C-29.21370664 38.9232848 -30.2439857 38.16508581 -32 36 C-33.76956696 28.34781855 -30.43503313 20.34501224 -26.75 13.76953125 C-20.76602364 4.98056597 -10.83238129 -2.45261463 0 0 Z " fill="#030305" transform="translate(275,171)"/>
<path d="M0 0 C2.56314499 -0.08132187 5.12368418 -0.14064175 7.6875 -0.1875 C8.40873047 -0.21263672 9.12996094 -0.23777344 9.87304688 -0.26367188 C14.45882272 -0.32649072 17.42591999 0.04922893 21 3 C23.12859 6.32800747 23.29922464 9.17363761 23.4140625 13.078125 C23.45273437 14.23828125 23.49140625 15.3984375 23.53125 16.59375 C23.5621875 17.8003125 23.593125 19.006875 23.625 20.25 C23.66367187 21.47203125 23.70234375 22.6940625 23.7421875 23.953125 C23.83642108 26.9685994 23.92203455 29.98406828 24 33 C24.85754883 33.01458252 25.71509766 33.02916504 26.59863281 33.04418945 C29.78960413 33.10535478 32.97993587 33.17952762 36.17041016 33.26245117 C37.54952667 33.29564193 38.92877711 33.32369217 40.30810547 33.34643555 C42.29422306 33.38008642 44.27996559 33.43394729 46.265625 33.48828125 C47.45961914 33.51446533 48.65361328 33.54064941 49.88378906 33.56762695 C53.24894633 34.03454121 54.6677994 34.55923622 57 37 C58.27798797 40.59521556 58.12584606 44.16945813 58.12698364 47.9516449 C58.12854363 48.65174543 58.13010362 49.35184596 58.13171089 50.07316166 C58.13570046 52.42045924 58.13253865 54.76769217 58.12939453 57.11499023 C58.13074988 58.79936765 58.13253057 60.48374478 58.13470459 62.16812134 C58.13927451 66.75494062 58.13748812 71.34173747 58.1343255 75.92855716 C58.13178598 80.76259847 58.13414514 85.59663792 58.13571167 90.43067932 C58.13753446 98.58440492 58.13513018 106.73812148 58.13037109 114.8918457 C58.12498843 124.21950791 58.1266463 133.54714806 58.1321975 142.87480968 C58.13679841 150.93739964 58.13734397 158.99998311 58.13475883 167.06257397 C58.13322595 171.85190982 58.13291618 176.64123548 58.13629532 181.4305706 C58.15130359 205.97066343 57.80670676 230.47260962 57 255 C56.67 255 56.34 255 56 255 C55.99761165 253.8895592 55.99522329 252.7791184 55.99276257 251.63502789 C55.93403079 224.64553175 55.85818735 197.65612534 55.76428509 170.66672802 C55.7192734 157.61498508 55.6798712 144.56326976 55.65356445 131.51147461 C55.63062782 120.13872569 55.59727858 108.76606378 55.55129844 97.3933838 C55.52730763 91.36874579 55.50861731 85.34419425 55.50238609 79.31950951 C55.49636168 73.65358354 55.47645808 67.98787901 55.44572449 62.32203484 C55.43690169 60.23827397 55.43323038 58.15448421 55.43499184 56.07070541 C55.43663329 53.23386401 55.4200423 50.39770679 55.39872742 47.56095886 C55.40357499 46.72925255 55.40842257 45.89754625 55.41341704 45.04063672 C55.46900402 40.88072694 55.46900402 40.88072694 53.66163665 37.2853964 C51.03913679 35.25670266 48.68966819 35.69929701 45.43359375 35.77734375 C43.4990332 35.80538086 43.4990332 35.80538086 41.52539062 35.83398438 C40.16272886 35.86722003 38.80009786 35.9017401 37.4375 35.9375 C34.76942359 36.00038608 32.10220966 36.04845951 29.43359375 36.08984375 C28.24822021 36.11941162 27.06284668 36.14897949 25.84155273 36.17944336 C23 36 23 36 21 34 C20.68115234 31.01904297 20.68115234 31.01904297 20.5859375 27.2421875 C20.56657135 26.57913605 20.5472052 25.91608459 20.5272522 25.23294067 C20.46744046 23.11375823 20.42106612 20.9945215 20.375 18.875 C20.33682155 17.43877831 20.29776989 16.00257955 20.2578125 14.56640625 C20.16173875 11.04448064 20.07771358 7.52238392 20 4 C15.76652156 2.58884052 11.56721336 2.61622187 7.12890625 2.37890625 C4.22789609 2.0275979 2.46873806 1.49822679 0 0 Z " fill="#0A0A0D" transform="translate(436,81)"/>
<path d="M0 0 C0.66 0 1.32 0 2 0 C2.00586624 0.70743851 2.01173248 1.41487701 2.01777649 2.14375305 C2.07567101 8.80944932 2.14772853 15.47482418 2.23571491 22.14019489 C2.28045028 25.56699079 2.31969888 28.99366695 2.34643555 32.4206543 C2.37741047 36.3601231 2.43220098 40.29908651 2.48828125 44.23828125 C2.49786613 46.0852636 2.49786613 46.0852636 2.50764465 47.96955872 C2.52743881 49.11051498 2.54723297 50.25147125 2.56762695 51.42700195 C2.57873001 52.432939 2.58983307 53.43887604 2.60127258 54.47529602 C2.81071693 56.97469011 2.81071693 56.97469011 4.11967087 58.63413525 C6.89394541 60.64935893 9.07874815 60.37649546 12.48399353 60.37854004 C13.47590827 60.38533523 13.47590827 60.38533523 14.48786169 60.3922677 C16.70817124 60.40391386 18.92788089 60.39423626 21.14819336 60.38476562 C22.73818858 60.38886973 24.32818079 60.39432965 25.91816711 60.40104675 C29.34438244 60.4127844 32.77043662 60.41525162 36.19666862 60.41069031 C41.61268746 60.40389263 47.02849346 60.41972787 52.44447327 60.43908691 C63.94213734 60.4769801 75.43978305 60.48974787 86.9375 60.5 C99.34582769 60.51106651 111.75405782 60.52637552 124.16231829 60.57071257 C129.54781754 60.58909481 134.93307449 60.59295188 140.31859767 60.58577728 C143.66758851 60.5842574 147.0164577 60.59502688 150.36541557 60.60915565 C151.91985109 60.61316456 153.47430961 60.61202265 155.02873611 60.60538292 C157.14913015 60.59702058 159.26867987 60.60696856 161.38902283 60.62145996 C162.57608291 60.62217247 163.76314299 60.62288498 164.98617458 60.62361908 C168.29730917 61.03712939 169.68581984 61.62650793 172 64 C172.75 67.1875 172.75 67.1875 173 70 C172.360625 69.195625 171.72125 68.39125 171.0625 67.5625 C169.59396498 65.7249496 169.59396498 65.7249496 168 64 C165.92304302 63.89966437 163.84262258 63.87090019 161.76324463 63.86869812 C160.77495151 63.86552455 160.77495151 63.86552455 159.76669288 63.86228687 C157.54268774 63.85626027 155.31873891 63.8572889 153.09472656 63.8581543 C151.50665184 63.85512451 149.918578 63.85160357 148.33050537 63.84762573 C144.9021215 63.83972168 141.47374812 63.83458613 138.04535675 63.83133507 C132.62507422 63.82543759 127.2048578 63.80890879 121.78460693 63.78999329 C119.93074421 63.78365542 118.07688145 63.7773298 116.22301865 63.77101612 C115.29441261 63.76785031 114.36580657 63.7646845 113.40906096 63.76142275 C100.78476339 63.71931004 88.16049591 63.6863733 75.53613281 63.67407227 C67.02837742 63.66569706 58.52078483 63.64322441 50.01311088 63.6047166 C45.50861633 63.5849336 41.0043653 63.57255866 36.49982452 63.57755089 C32.2611245 63.58219098 28.02288586 63.56842726 23.78427887 63.54053879 C22.22866327 63.53361555 20.67300008 63.53351264 19.11738586 63.54073906 C16.99260375 63.54961229 14.86934807 63.53396152 12.74468994 63.51225281 C11.55595402 63.50986445 10.36721809 63.5074761 9.14245987 63.50501537 C5.36886239 62.89857175 3.70283928 61.64991833 1 59 C-0.29748782 55.92937142 -0.12110759 52.8029082 -0.11352539 49.49707031 C-0.11344986 48.39623108 -0.11337433 47.29539185 -0.11329651 46.16119385 C-0.10813522 44.97878113 -0.10297394 43.79636841 -0.09765625 42.578125 C-0.0962413 41.36300232 -0.09482635 40.14787964 -0.09336853 38.89593506 C-0.08776988 35.01393169 -0.0752176 31.13198594 -0.0625 27.25 C-0.05748483 24.61849042 -0.05292195 21.98697993 -0.04882812 19.35546875 C-0.03780089 12.90362617 -0.02106408 6.4518172 0 0 Z " fill="#0C0E13" transform="translate(80,311)"/>
<path d="M0 0 C2.50757837 0.96878556 3.84677866 2.16907348 5.75946045 4.05548096 C6.45988464 4.73999329 7.16030884 5.42450562 7.88195801 6.12976074 C8.99936371 7.24686432 8.99936371 7.24686432 10.13934326 8.38653564 C11.29614594 9.53191803 11.29614594 9.53191803 12.47631836 10.70043945 C14.10402672 12.31734344 15.72777449 13.93824281 17.34783936 15.56280518 C19.83299822 18.0489369 22.33869221 20.51299374 24.84637451 22.97637939 C26.4244969 24.54929544 28.00136324 26.12347292 29.57684326 27.69903564 C30.32987732 28.43567444 31.08291138 29.17231323 31.85876465 29.93127441 C32.5465802 30.62839539 33.23439575 31.32551636 33.9430542 32.04376221 C34.55276062 32.65141418 35.16246704 33.25906616 35.79064941 33.88513184 C37.46364796 36.35678344 37.42621132 37.88047478 37.09246826 40.80841064 C35.90496826 42.62091064 35.90496826 42.62091064 34.09246826 43.80841064 C31.1231323 44.15516259 29.62217107 44.16780009 27.11776733 42.46862793 C26.48631805 41.84115662 25.85486877 41.2136853 25.20428467 40.56719971 C24.48068756 39.8593634 23.75709045 39.1515271 23.01156616 38.42224121 C22.24677948 37.64733337 21.4819928 36.87242554 20.69403076 36.07403564 C19.89967621 35.28446472 19.10532166 34.4948938 18.28689575 33.68139648 C16.61160058 32.00950341 14.94260171 30.33128094 13.27947998 28.64727783 C10.72373434 26.0647424 8.14240654 23.50996719 5.55731201 20.95684814 C3.9346123 19.3308451 2.31346392 17.70329207 0.69403076 16.07403564 C-0.08290131 15.30722473 -0.85983337 14.54041382 -1.66030884 13.75036621 C-2.36499298 13.02992126 -3.06967712 12.30947632 -3.79571533 11.56719971 C-4.42239105 10.93654602 -5.04906677 10.30589233 -5.69473267 9.65612793 C-6.90753174 7.80841064 -6.90753174 7.80841064 -6.71530151 5.71801758 C-5.41798895 2.65110774 -3.62023451 -0.36361041 0 0 Z M-3.65753174 3.05841064 C-5.12401411 4.72245219 -5.12401411 4.72245219 -4.78253174 6.80841064 C-3.80069064 9.05261887 -2.81545343 10.28207329 -0.90753174 11.80841064 C-0.24753174 11.80841064 0.41246826 11.80841064 1.09246826 11.80841064 C1.42246826 12.79841064 1.75246826 13.78841064 2.09246826 14.80841064 C2.75246826 14.80841064 3.41246826 14.80841064 4.09246826 14.80841064 C4.35028076 15.39106689 4.60809326 15.97372314 4.87371826 16.57403564 C6.19080843 18.98870095 7.6433521 20.62581242 9.59246826 22.55841064 C10.20090576 23.17200439 10.80934326 23.78559814 11.43621826 24.41778564 C12.98731103 26.02275152 12.98731103 26.02275152 15.09246826 25.80841064 C15.30000732 26.34079346 15.50754639 26.87317627 15.72137451 27.42169189 C17.65982301 30.79602818 20.27151099 33.27681305 23.02996826 35.99591064 C23.56815186 36.54182861 24.10633545 37.08774658 24.66082764 37.65020752 C27.10407444 40.08140379 28.77980754 41.7041904 32.09246826 42.80841064 C34.07246826 40.33341064 34.07246826 40.33341064 36.09246826 37.80841064 C30.06806708 30.55628789 23.41644386 23.91261386 16.76629639 17.24200439 C14.82613055 15.29199001 12.89687552 13.33156337 10.96746826 11.37091064 C9.7337498 10.13067388 8.49939785 8.89106688 7.26434326 7.65216064 C6.68932068 7.06479126 6.1142981 6.47742188 5.52185059 5.87225342 C1.47064567 1.49127444 1.47064567 1.49127444 -3.65753174 3.05841064 Z " fill="#131319" transform="translate(343.90753173828125,265.19158935546875)"/>
<path d="M0 0 C21.20068109 -0.11670132 42.40130938 -0.20492338 63.60224628 -0.25906086 C73.44579607 -0.28486382 83.28914651 -0.3200542 93.13256836 -0.37719727 C101.71016783 -0.42696832 110.28762297 -0.45927579 118.86536282 -0.47044247 C123.40904838 -0.47697196 127.95232096 -0.4923611 132.4958744 -0.52865028 C136.76981779 -0.56251053 141.0431769 -0.57307335 145.31724167 -0.56553841 C146.88825719 -0.56691745 148.45929162 -0.57690966 150.03019142 -0.59602737 C152.17122744 -0.62081219 154.31004149 -0.61496193 156.4511261 -0.60127258 C157.65037877 -0.60588155 158.84963144 -0.61049051 160.08522511 -0.61523914 C163 0 163 0 164.97180462 2.35007954 C166 5 166 5 165 8 C164.47598476 7.0256645 163.95196953 6.051329 163.41207504 5.04746819 C161.30768358 1.7524683 161.30768358 1.7524683 157.99341202 1.24609566 C156.80982983 1.24425207 155.62624763 1.24240849 154.40679932 1.24050903 C153.41549487 1.22669388 153.41549487 1.22669388 152.40416408 1.21259964 C150.19083304 1.1890137 147.97994687 1.2081253 145.76660156 1.22705078 C144.17980954 1.21888046 142.5930292 1.20807833 141.00627136 1.19483948 C136.69855288 1.16636772 132.39159768 1.17476675 128.08384037 1.18970728 C123.58207752 1.19907652 119.08050232 1.17464666 114.57879639 1.15377808 C106.05423537 1.11940851 97.5299425 1.11550473 89.00532603 1.12250316 C79.30037861 1.12899048 69.59561999 1.10158053 59.89072847 1.07130075 C39.92713148 1.00977384 19.96368149 0.99088833 0 1 C0 0.67 0 0.34 0 0 Z " fill="#1C1D23" transform="translate(87,373)"/>
<path d="M0 0 C9.05292658 0.493796 17.42242192 3.2681573 26 6 C26.71816895 6.22316895 27.43633789 6.44633789 28.17626953 6.67626953 C38.03465181 9.76896304 46.82153897 13.76927746 55.70703125 19.046875 C61.42624057 22.43905135 64.34341639 23.43676755 71 22 C73.86673164 21.03973184 73.86673164 21.03973184 76 20 C73.82360389 22.90186148 72.37976854 24.63272348 68.828125 25.578125 C62.21252305 26.04163851 58.63837971 23.75228585 53.3515625 20.06640625 C39.65482553 11.62168148 22.24676438 6.62418353 6.640625 2.9609375 C3 2 3 2 0 0 Z " fill="#12141A" transform="translate(220,342)"/>
<path d="M0 0 C2.56314499 -0.08132187 5.12368418 -0.14064175 7.6875 -0.1875 C8.40873047 -0.21263672 9.12996094 -0.23777344 9.87304688 -0.26367188 C14.45882272 -0.32649072 17.42591999 0.04922893 21 3 C23.23155145 6.4338004 23.30392372 9.4772031 23.4140625 13.515625 C23.45273437 14.76601562 23.49140625 16.01640625 23.53125 17.3046875 C23.5621875 18.60664062 23.593125 19.90859375 23.625 21.25 C23.66367187 22.56742188 23.70234375 23.88484375 23.7421875 25.2421875 C23.83645919 28.49456078 23.91931849 31.74726121 24 35 C28.29 35 32.58 35 37 35 C37 35.33 37 35.66 37 36 C34.70858714 36.05384521 32.41681812 36.09272087 30.125 36.125 C28.84882813 36.14820313 27.57265625 36.17140625 26.2578125 36.1953125 C23 36 23 36 21 34 C20.68115234 31.01904297 20.68115234 31.01904297 20.5859375 27.2421875 C20.56657135 26.57913605 20.5472052 25.91608459 20.5272522 25.23294067 C20.46744046 23.11375823 20.42106612 20.9945215 20.375 18.875 C20.33682155 17.43877831 20.29776989 16.00257955 20.2578125 14.56640625 C20.16173875 11.04448064 20.07771358 7.52238392 20 4 C15.76652156 2.58884052 11.56721336 2.61622187 7.12890625 2.37890625 C4.22789609 2.0275979 2.46873806 1.49822679 0 0 Z " fill="#06060E" transform="translate(436,81)"/>
<path d="M0 0 C1.27230469 0.00902344 2.54460937 0.01804687 3.85546875 0.02734375 C5.31919922 0.04474609 5.31919922 0.04474609 6.8125 0.0625 C6.8125 0.3925 6.8125 0.7225 6.8125 1.0625 C4.98912109 1.36994141 4.98912109 1.36994141 3.12890625 1.68359375 C1.54423486 1.95551961 -0.04039863 2.22766643 -1.625 2.5 C-2.42744141 2.63470703 -3.22988281 2.76941406 -4.05664062 2.90820312 C-7.94221303 3.26517224 -7.94221303 3.26517224 -11.1875 5.0625 C-12.19354107 12.45986078 -12.50629048 19.85105244 -12.79296875 27.3046875 C-12.83035156 28.16320312 -12.86773437 29.02171875 -12.90625 29.90625 C-12.95168945 31.06930664 -12.95168945 31.06930664 -12.99804688 32.25585938 C-13.1875 34.0625 -13.1875 34.0625 -14.1875 35.0625 C-16.40437994 35.22123955 -18.62605298 35.31383837 -20.84765625 35.37890625 C-21.51212265 35.39968735 -22.17658905 35.42046844 -22.8611908 35.44187927 C-24.99068543 35.50743658 -27.12030668 35.56628785 -29.25 35.625 C-30.69076847 35.66817939 -32.13152399 35.71179349 -33.57226562 35.75585938 C-37.1105404 35.86312393 -40.64895869 35.96437371 -44.1875 36.0625 C-44.1875 35.4025 -44.1875 34.7425 -44.1875 34.0625 C-34.6175 33.7325 -25.0475 33.4025 -15.1875 33.0625 C-15.01718613 24.02814494 -15.01718613 24.02814494 -14.88964844 14.99316406 C-14.8590332 13.86620117 -14.82841797 12.73923828 -14.796875 11.578125 C-14.7654541 9.84997559 -14.7654541 9.84997559 -14.73339844 8.08691406 C-14.07809377 4.45636206 -13.07697829 3.28770023 -10.1875 1.0625 C-6.62704823 -0.12431726 -3.74941663 -0.03439832 0 0 Z " fill="#1C1D23" transform="translate(129.1875,80.9375)"/>
<path d="M0 0 C0.66 0 1.32 0 2 0 C0.63053367 3.63662111 -1.01756135 6.93673001 -2.9375 10.3125 C-7.61777357 18.80548423 -10.14611588 26.48459296 -10.09765625 36.2734375 C-10.09443359 37.42714844 -10.09121094 38.58085937 -10.08789062 39.76953125 C-10.07951172 40.95933594 -10.07113281 42.14914063 -10.0625 43.375 C-10.05798828 44.58800781 -10.05347656 45.80101562 -10.04882812 47.05078125 C-10.03708354 50.03390507 -10.0206584 53.01692679 -10 56 C-15.42197955 47.86703068 -13.43764983 34.30894455 -11.75390625 25.1484375 C-9.61073916 16.1982164 -6.16524894 6.99692475 0 0 Z " fill="#131318" transform="translate(233,168)"/>
<path d="M0 0 C0.495 0.99 0.495 0.99 1 2 C0.2265625 2.36351563 -0.546875 2.72703125 -1.34375 3.1015625 C-8.98265661 6.78865851 -15.41506696 10.82244571 -21.75 16.4375 C-24 18 -24 18 -25.8046875 17.87109375 C-28.85195494 16.66194671 -30.9012203 14.76617067 -33.375 12.625 C-37.08176716 9.41942953 -40.53591147 7.04110242 -45 5 C-42 4 -42 4 -39.765625 5.00390625 C-34.42440353 8.31314129 -29.64234378 11.76133829 -25 16 C-24.30390625 15.27296875 -24.30390625 15.27296875 -23.59375 14.53125 C-16.63035964 7.77572204 -8.70542198 4.01624376 0 0 Z " fill="#101015" transform="translate(311,97)"/>
<path d="M0 0 C0 0.66 0 1.32 0 2 C-1.43666016 2.34611328 -1.43666016 2.34611328 -2.90234375 2.69921875 C-11.83043023 4.87688368 -20.65203647 7.30562589 -29.453125 9.94921875 C-31.96361982 10.69296667 -34.45251268 11.4025223 -37 12 C-36.67 11.01 -36.34 10.02 -36 9 C-33.24250388 7.84401909 -30.59424321 6.8864056 -27.75 6 C-26.93893799 5.73944824 -26.12787598 5.47889648 -25.29223633 5.21044922 C-7.94376756 -0.2604514 -7.94376756 -0.2604514 0 0 Z " fill="#101118" transform="translate(350,86)"/>
<path d="M0 0 C0.66 0 1.32 0 2 0 C1.34 1.98 0.68 3.96 0 6 C1.27843883 8.29007686 1.27843883 8.29007686 4 10 C6.80929722 9.92987714 9.50967655 9.54411043 12.29296875 9.1640625 C15.87495247 8.94697258 18.06288468 10.01546262 21 12 C21 12.99 21 13.98 21 15 C20.34 14.505 19.68 14.01 19 13.5 C14.48269585 11.24134792 10.1521934 11.2826022 5.375 12.875 C3 13 3 13 1.328125 11.87109375 C-0.39030105 10.29849744 -1.80216261 9.0039009 -3 7 C-2.68177776 3.95331672 -1.74842345 2.62263518 0 0 Z " fill="#101117" transform="translate(331,242)"/>
<path d="M0 0 C10.95260577 0.75535212 21.14699363 4.13428751 31.3125 8.125 C31.96492676 8.37854248 32.61735352 8.63208496 33.28955078 8.89331055 C37.87666699 10.75333397 37.87666699 10.75333397 39 13 C35.59775391 12.40810958 32.64409212 11.53661928 29.4765625 10.171875 C23.56512101 7.74588083 17.51760684 5.98903693 11.375 4.25 C9.72564453 3.77626953 9.72564453 3.77626953 8.04296875 3.29296875 C5.36326673 2.52401078 2.68231406 1.75978612 0 1 C0 0.67 0 0.34 0 0 Z " fill="#12131C" transform="translate(226,87)"/>
<path d="M0 0 C0.66 0 1.32 0 2 0 C3.08693923 1.75235078 4.09294271 3.5550745 5.0625 5.375 C9.73153625 13.6213563 15.50437913 20.2139067 23 26 C22.67 26.66 22.34 27.32 22 28 C15.07692308 23.53846154 15.07692308 23.53846154 13 21 C13 20.34 13 19.68 13 19 C12.01 18.67 11.02 18.34 10 18 C8.02734375 15.48828125 8.02734375 15.48828125 5.9375 12.3125 C5.24527344 11.27738281 4.55304688 10.24226562 3.83984375 9.17578125 C2.08601204 6.14846665 0.96948321 3.35049379 0 0 Z " fill="#101117" transform="translate(225,231)"/>
<path d="M0 0 C-2.90600261 1.25664978 -4.79604584 2 -8 2 C-8 2.66 -8 3.32 -8 4 C-9.7578125 5.2265625 -9.7578125 5.2265625 -12.125 6.625 C-16.97755234 9.73795811 -19.83378677 13.26027473 -23 18 C-23.99327224 19.33835273 -24.99152789 20.67306301 -26 22 C-25.69855998 15.97119957 -23.06063008 12.23186147 -19 8 C-6.3283143 -2.34382011 -6.3283143 -2.34382011 0 0 Z " fill="#111216" transform="translate(272,171)"/>
<path d="M0 0 C-2.81260928 1.51118703 -5.45822532 2.48795952 -8.5546875 3.25390625 C-9.41707031 3.46853516 -10.27945312 3.68316406 -11.16796875 3.90429688 C-12.06128906 4.12150391 -12.95460938 4.33871094 -13.875 4.5625 C-14.76058594 4.78357422 -15.64617187 5.00464844 -16.55859375 5.23242188 C-21.02109715 6.33308404 -25.44780164 7.33144282 -30 8 C-27.33826189 4.52384948 -23.80684831 3.86737972 -19.75 2.875 C-19.10675781 2.70613281 -18.46351563 2.53726562 -17.80078125 2.36328125 C-11.90660393 0.85712326 -6.09443531 -0.18467986 0 0 Z " fill="#141519" transform="translate(352,343)"/>
<path d="M0 0 C1.27230469 0.00902344 2.54460937 0.01804687 3.85546875 0.02734375 C5.31919922 0.04474609 5.31919922 0.04474609 6.8125 0.0625 C6.8125 0.3925 6.8125 0.7225 6.8125 1.0625 C5.59691406 1.26746094 4.38132813 1.47242187 3.12890625 1.68359375 C1.54423486 1.95551961 -0.04039863 2.22766643 -1.625 2.5 C-2.82866211 2.70206055 -2.82866211 2.70206055 -4.05664062 2.90820312 C-7.94221303 3.26517224 -7.94221303 3.26517224 -11.1875 5.0625 C-11.41942865 6.57719448 -11.59965238 8.10004562 -11.75 9.625 C-11.83378906 10.45128906 -11.91757813 11.27757813 -12.00390625 12.12890625 C-12.06449219 12.76699219 -12.12507813 13.40507813 -12.1875 14.0625 C-12.5175 14.0625 -12.8475 14.0625 -13.1875 14.0625 C-13.77967644 11.05012418 -14.22991949 8.13791288 -14.1875 5.0625 C-10.46139472 -0.26050754 -6.08780268 -0.0558514 0 0 Z " fill="#131318" transform="translate(129.1875,80.9375)"/>
<path d="M0 0 C1.32 0.66 2.64 1.32 4 2 C3.8125 5.3125 3.8125 5.3125 3 9 C0.9375 10.625 0.9375 10.625 -2 12 C-3.40172566 12.90763079 -4.79726639 13.82486272 -6.1875 14.75 C-8.23046875 16.109375 -8.23046875 16.109375 -10 17 C-10.66 16.67 -11.32 16.34 -12 16 C-10.58994275 14.84604289 -9.17166542 13.70212534 -7.75 12.5625 C-6.56664062 11.60537109 -6.56664062 11.60537109 -5.359375 10.62890625 C-3.13752508 9.09494695 -1.63256518 8.42869754 1 8 C1.20970559 3.85906302 1.20970559 3.85906302 0 0 Z " fill="#111116" transform="translate(273,171)"/>
<path d="M0 0 C0.66 0.33 1.32 0.66 2 1 C-0.92355355 8.84456604 -4.93540166 15.29026777 -12 20 C-12.99 19.67 -13.98 19.34 -15 19 C-14.18595703 18.41992188 -14.18595703 18.41992188 -13.35546875 17.828125 C-12.64003906 17.30734375 -11.92460937 16.7865625 -11.1875 16.25 C-10.47980469 15.73953125 -9.77210938 15.2290625 -9.04296875 14.703125 C-5.4855614 11.73748522 -3.61334924 8.47268097 -1.8125 4.25 C-1.46832031 3.45078125 -1.12414062 2.6515625 -0.76953125 1.828125 C-0.51558594 1.22484375 -0.26164062 0.6215625 0 0 Z " fill="#11121A" transform="translate(315,361)"/>
<path d="M0 0 C2.56314499 -0.08132187 5.12368418 -0.14064175 7.6875 -0.1875 C8.40873047 -0.21263672 9.12996094 -0.23777344 9.87304688 -0.26367188 C14.45299374 -0.32641087 17.38899887 0.1111991 21 3 C21.8125 5.1875 21.8125 5.1875 22 7 C21.34 6.67 20.68 6.34 20 6 C20 5.34 20 4.68 20 4 C15.76652156 2.58884052 11.56721336 2.61622187 7.12890625 2.37890625 C4.22789609 2.0275979 2.46873806 1.49822679 0 0 Z " fill="#141419" transform="translate(436,81)"/>
<path d="M0 0 C-7.25181115 3.26456103 -14.1140915 5.83107109 -22 7 C-20.27148984 3.54297968 -16.16655084 3.02745202 -12.6875 1.8125 C-11.91470703 1.52697266 -11.14191406 1.24144531 -10.34570312 0.94726562 C-9.22131836 0.54991211 -9.22131836 0.54991211 -8.07421875 0.14453125 C-7.38932373 -0.09934326 -6.70442871 -0.34321777 -5.9987793 -0.59448242 C-3.68281714 -1.06435089 -2.22470469 -0.72849821 0 0 Z " fill="#12121A" transform="translate(327,337)"/>
<path d="M0 0 C2.59719377 0.99068216 3.76257032 1.51689019 5.01171875 4.05859375 C5.23472656 4.84363281 5.45773437 5.62867188 5.6875 6.4375 C5.91824219 7.21996094 6.14898437 8.00242187 6.38671875 8.80859375 C6.69029297 9.89333984 6.69029297 9.89333984 7 11 C7.65391779 14.1108154 7.65391779 14.1108154 10 15.0625 C10.66 15.371875 11.32 15.68125 12 16 C12.33 16.66 12.66 17.32 13 18 C11.68 17.67 10.36 17.34 9 17 C9 16.34 9 15.68 9 15 C8.34 15 7.68 15 7 15 C3.33299206 10.47500623 1.28858907 5.62293412 0 0 Z " fill="#0C0D11" transform="translate(256,361)"/>
<path d="M0 0 C7.43336446 2.42616757 14.75501127 5.05672333 22 8 C17.92905152 9.65891151 14.98737267 8.2528539 11 6.8125 C9.783125 6.38582031 8.56625 5.95914062 7.3125 5.51953125 C4.08653363 4.03969526 2.28667046 2.66968776 0 0 Z " fill="#131419" transform="translate(249,259)"/>
<path d="M0 0 C0.99 0.33 1.98 0.66 3 1 C3 1.66 3 2.32 3 3 C3.86625 3.37125 3.86625 3.37125 4.75 3.75 C7.3002997 5.16683317 9.01785701 6.87627537 11 9 C10.67 9.66 10.34 10.32 10 11 C8.32742645 9.5484451 6.66208242 8.08855591 5 6.625 C3.6078125 5.40683594 3.6078125 5.40683594 2.1875 4.1640625 C1.465625 3.44992187 0.74375 2.73578125 0 2 C0 1.34 0 0.68 0 0 Z " fill="#0E0E16" transform="translate(353,257)"/>
<path d="M0 0 C3.68428193 3.28953744 5.8406504 6.60132489 8 11 C7.67 11.99 7.34 12.98 7 14 C5.82807953 12.04480616 4.6626071 10.0857461 3.5 8.125 C2.8503125 7.03445312 2.200625 5.94390625 1.53125 4.8203125 C0 2 0 2 0 0 Z " fill="#0F1017" transform="translate(331,170)"/>
<path d="M0 0 C4.5220607 2.26103035 5.22520129 3.42288753 7 8 C6.67 8.99 6.34 9.98 6 11 C4.02 7.37 2.04 3.74 0 0 Z " fill="#141419" transform="translate(318,178)"/>
<path d="M0 0 C4.19360449 0.67097672 7.40334352 2.8558394 11 5 C10.01 5.495 10.01 5.495 9 6 C7.08984375 5.29296875 7.08984375 5.29296875 4.9375 4.1875 C4.22464844 3.83042969 3.51179688 3.47335937 2.77734375 3.10546875 C1 2 1 2 0 0 Z " fill="#13151B" transform="translate(260,388)"/>
<path d="M0 0 C0.66 0.33 1.32 0.66 2 1 C-0.97 4.96 -0.97 4.96 -4 9 C-4.33 8.01 -4.66 7.02 -5 6 C-3.6875 3.8125 -3.6875 3.8125 -2 2 C-1.34 2 -0.68 2 0 2 C0 1.34 0 0.68 0 0 Z " fill="#10111A" transform="translate(246,176)"/>
<path d="M0 0 C0.33 0.99 0.66 1.98 1 3 C-0.8125 6.1875 -0.8125 6.1875 -3 9 C-3.66 9 -4.32 9 -5 9 C-4.690625 8.401875 -4.38125 7.80375 -4.0625 7.1875 C-2.89790296 4.91043228 -2.89790296 4.91043228 -2 2 C-1.34 2 -0.68 2 0 2 C0 1.34 0 0.68 0 0 Z " fill="#0D0D12" transform="translate(392,308)"/>
<path d="" fill="#000000" transform="translate(0,0)"/>
<path d="" fill="#000000" transform="translate(0,0)"/>
<path d="" fill="#000000" transform="translate(0,0)"/>
<path d="" fill="#000000" transform="translate(0,0)"/>
<path d="" fill="#000000" transform="translate(0,0)"/>
<path d="" fill="#000000" transform="translate(0,0)"/>
<path d="" fill="#000000" transform="translate(0,0)"/>
<path d="" fill="#000000" transform="translate(0,0)"/>
<path d="" fill="#000000" transform="translate(0,0)"/>
<path d="" fill="#000000" transform="translate(0,0)"/>
<path d="" fill="#000000" transform="translate(0,0)"/>
<path d="" fill="#000000" transform="translate(0,0)"/>
<path d="" fill="#000000" transform="translate(0,0)"/>
<path d="" fill="#000000" transform="translate(0,0)"/>
<path d="" fill="#000000" transform="translate(0,0)"/>
<path d="" fill="#000000" transform="translate(0,0)"/>
<path d="" fill="#000000" transform="translate(0,0)"/>
<path d="" fill="#000000" transform="translate(0,0)"/>
<path d="" fill="#000000" transform="translate(0,0)"/>
<path d="" fill="#000000" transform="translate(0,0)"/>
<path d="" fill="#000000" transform="translate(0,0)"/>
<path d="" fill="#000000" transform="translate(0,0)"/>
<path d="" fill="#000000" transform="translate(0,0)"/>
<path d="" fill="#000000" transform="translate(0,0)"/>
<path d="" fill="#000000" transform="translate(0,0)"/>
<path d="" fill="#000000" transform="translate(0,0)"/>
<path d="" fill="#000000" transform="translate(0,0)"/>
<path d="" fill="#000000" transform="translate(0,0)"/>
<path d="" fill="#000000" transform="translate(0,0)"/>
<path d="" fill="#000000" transform="translate(0,0)"/>
<path d="" fill="#000000" transform="translate(0,0)"/>
<path d="" fill="#000000" transform="translate(0,0)"/>
<path d="" fill="#000000" transform="translate(0,0)"/>
<path d="" fill="#000000" transform="translate(0,0)"/>
<path d="" fill="#000000" transform="translate(0,0)"/>
<path d="" fill="#000000" transform="translate(0,0)"/>
<path d="" fill="#000000" transform="translate(0,0)"/>
<path d="" fill="#000000" transform="translate(0,0)"/>
<path d="" fill="#000000" transform="translate(0,0)"/>
<path d="" fill="#000000" transform="translate(0,0)"/>
<path d="" fill="#000000" transform="translate(0,0)"/>
<path d="" fill="#000000" transform="translate(0,0)"/>
<path d="" fill="#000000" transform="translate(0,0)"/>
<path d="" fill="#000000" transform="translate(0,0)"/>
<path d="" fill="#000000" transform="translate(0,0)"/>
<path d="" fill="#000000" transform="translate(0,0)"/>
<path d="" fill="#000000" transform="translate(0,0)"/>
<path d="" fill="#000000" transform="translate(0,0)"/>
<path d="" fill="#000000" transform="translate(0,0)"/>
<path d="" fill="#000000" transform="translate(0,0)"/>
<path d="" fill="#000000" transform="translate(0,0)"/>
<path d="" fill="#000000" transform="translate(0,0)"/>
<path d="" fill="#000000" transform="translate(0,0)"/>
<path d="" fill="#000000" transform="translate(0,0)"/>
<path d="" fill="#000000" transform="translate(0,0)"/>
<path d="" fill="#000000" transform="translate(0,0)"/>
<path d="" fill="#000000" transform="translate(0,0)"/>
<path d="" fill="#000000" transform="translate(0,0)"/>
<path d="" fill="#000000" transform="translate(0,0)"/>
<path d="" fill="#000000" transform="translate(0,0)"/>
<path d="" fill="#000000" transform="translate(0,0)"/>
<path d="" fill="#000000" transform="translate(0,0)"/>
<path d="" fill="#000000" transform="translate(0,0)"/>
<path d="" fill="#000000" transform="translate(0,0)"/>
<path d="" fill="#000000" transform="translate(0,0)"/>
<path d="" fill="#000000" transform="translate(0,0)"/>
</svg>
