<?xml version="1.0" encoding="UTF-8"?>
<svg version="1.1" xmlns="http://www.w3.org/2000/svg" width="566" height="440">
<path d="M0 0 C2.64979813 0.00535018 5.29942578 0.00002439 7.94921875 -0.00634766 C24.07965672 -0.01516005 39.8280955 0.7343615 55.78515625 3.25537109 C56.46438141 3.36197052 57.14360657 3.46856995 57.84341431 3.57839966 C75.90785845 6.45065758 94.0560882 10.4275056 110.28515625 19.13037109 C111.99251953 19.98115234 111.99251953 19.98115234 113.734375 20.84912109 C123.22005208 25.69287109 123.22005208 25.69287109 126.84765625 29.63037109 C128.05421875 30.86787109 128.05421875 30.86787109 129.28515625 32.13037109 C132.25728893 31.72062076 134.65441047 30.53969919 137.28515625 29.13037109 C137.28515625 28.47037109 137.28515625 27.81037109 137.28515625 27.13037109 C139.45023084 25.87754703 141.61713982 24.62808667 143.78515625 23.38037109 C144.38585937 23.03232422 144.9865625 22.68427734 145.60546875 22.32568359 C165.39401861 10.95779325 187.36080594 5.82409511 209.78515625 2.38037109 C210.53651855 2.2647583 211.28788086 2.14914551 212.06201172 2.0300293 C225.99931637 0.04222009 239.92252164 -0.02809971 253.97021484 0 C257.1468587 0.0053487 260.32336048 0.00003212 263.5 -0.00634766 C272.4955578 -0.01108539 281.49375888 0.01687345 290.48046875 0.45068359 C291.68977051 0.50756348 292.89907227 0.56444336 294.14501953 0.62304688 C297.61575164 1.18378248 299.54926015 1.92890087 302.28515625 4.13037109 C304.29171227 7.74102967 304.5734938 11.0013414 304.69921875 15.08740234 C304.73789062 16.19921875 304.7765625 17.31103516 304.81640625 18.45654297 C304.8628125 20.18227539 304.8628125 20.18227539 304.91015625 21.94287109 C304.94882812 23.11269531 304.9875 24.28251953 305.02734375 25.48779297 C305.12140755 28.36849673 305.20705502 31.24919764 305.28515625 34.13037109 C306.14270508 34.14495361 307.00025391 34.15953613 307.88378906 34.17456055 C311.07476038 34.23572587 314.26509212 34.30989871 317.45556641 34.39282227 C318.83468292 34.42601302 320.21393336 34.45406327 321.59326172 34.47680664 C323.57937931 34.51045752 325.56512184 34.56431838 327.55078125 34.61865234 C328.74477539 34.64483643 329.93876953 34.67102051 331.16894531 34.69799805 C334.55481904 35.1677867 335.97785303 35.62781869 338.28515625 38.13037109 C339.70941092 42.928728 339.42718721 47.9209569 339.41886902 52.87852478 C339.42113458 53.86678318 339.42340013 54.85504158 339.42573434 55.87324721 C339.43206956 59.1880523 339.43124528 62.50281647 339.43041992 65.81762695 C339.43341168 68.19283603 339.43681424 70.56804462 339.44059753 72.94325256 C339.44852071 78.72716811 339.45165207 84.5110712 339.45220991 90.2949919 C339.45268531 94.99638669 339.45474122 99.69777811 339.45791054 104.39917183 C339.46671479 117.73092069 339.47133019 131.0626615 339.47058006 144.39441328 C339.47052013 145.47208764 339.47052013 145.47208764 339.47045898 146.5715332 C339.4704181 147.29086061 339.47037722 148.01018801 339.4703351 148.75131322 C339.46992853 160.41256955 339.47950145 172.0737936 339.49359735 183.7350406 C339.50795951 195.71110159 339.51486765 207.68714683 339.51400357 219.66321665 C339.51367159 226.38595955 339.51641961 233.10866859 339.52718163 239.83140373 C339.53684636 246.15230638 339.53695293 252.47313745 339.52966499 258.79404259 C339.52861719 261.11522272 339.53099361 263.43640727 339.53702545 265.7575798 C339.54472045 268.92354922 339.54011699 272.08926986 339.53239441 275.25523376 C339.53753797 276.1759556 339.54268154 277.09667745 339.54798096 278.04529995 C339.52267536 282.7327098 339.44070626 286.85880961 337.28515625 291.13037109 C333.51880386 294.2961469 330.39290271 294.49739594 325.57411194 294.46853638 C324.58175062 294.46898148 324.58175062 294.46898148 323.5693416 294.46943557 C321.35982079 294.46701983 319.1510406 294.4433478 316.94165039 294.41992188 C315.35461363 294.41420232 313.76757109 294.40993082 312.18052673 294.40699768 C308.76631679 294.39839956 305.35229748 294.38115138 301.93815804 294.35766983 C296.5382795 294.32219694 291.13861312 294.31586748 285.7386322 294.31539917 C270.38455756 294.31043971 255.0308183 294.28119662 239.67700195 294.18896484 C231.19442051 294.13825361 222.71239763 294.11957405 214.22967428 294.13655269 C209.7420464 294.14408054 205.25584191 294.13464268 200.76844978 294.08530045 C196.54813991 294.03889699 192.3298294 294.03403238 188.10936928 294.06088066 C186.56216101 294.06323141 185.01484004 294.05019595 183.46791458 294.02052116 C175.13966389 293.57984188 175.13966389 293.57984188 168.07162285 297.20534897 C166.40397442 299.63604399 166.40397442 299.63604399 165.2489996 302.19909477 C164.93093129 302.83641596 164.61286299 303.47373714 164.28515625 304.13037109 C163.62515625 304.13037109 162.96515625 304.13037109 162.28515625 304.13037109 C161.95515625 305.12037109 161.62515625 306.11037109 161.28515625 307.13037109 C150.80220691 315.26259846 138.24340345 317.71242874 125.2109375 316.95068359 C114.22192552 315.54294088 104.26923259 310.87067715 97.28515625 302.13037109 C94.28515625 297.77553238 94.28515625 297.77553238 94.28515625 295.13037109 C93.44970685 295.12798274 92.61425745 295.12559439 91.7534914 295.12313366 C71.43108958 295.06401394 51.10880666 294.98848329 30.78653431 294.89465618 C20.95885604 294.8496785 11.13121417 294.81026839 1.3034668 294.78393555 C-7.26176739 294.76097144 -15.82688657 294.72759121 -24.39202958 294.68166953 C-28.92778981 294.65771588 -33.46343599 294.63900115 -37.99925804 294.63275719 C-42.268262 294.62671601 -46.53697408 294.6067513 -50.80587006 294.57609558 C-52.37276751 294.56729982 -53.93970308 294.56359596 -55.50662422 294.56536293 C-57.64657428 294.56701421 -59.78563301 294.55033041 -61.92546082 294.52909851 C-63.1228699 294.52448955 -64.32027899 294.51988058 -65.5539732 294.51513195 C-69.09973989 294.08351914 -70.9756595 293.42042495 -73.71484375 291.13037109 C-75.46865016 286.60907167 -74.85653997 281.10126052 -74.84855652 276.29956055 C-74.85082208 275.30242948 -74.85308763 274.3052984 -74.85542184 273.27795124 C-74.86175741 269.9331732 -74.86093276 266.58843572 -74.86010742 263.24365234 C-74.86309913 260.84711657 -74.86650169 258.45058128 -74.87028503 256.05404663 C-74.87820819 250.21832917 -74.88133956 244.38262404 -74.88189741 238.54690146 C-74.88237276 233.80402212 -74.88442845 229.06114611 -74.88759804 224.31826782 C-74.8964019 210.87077826 -74.90101769 197.42329667 -74.90026756 183.97580421 C-74.90022761 183.25111792 -74.90018765 182.52643163 -74.90014648 181.77978516 C-74.9001056 181.05421421 -74.90006472 180.32864327 -74.9000226 179.58108532 C-74.89961594 167.81568913 -74.9091914 156.05032492 -74.92328485 144.28493798 C-74.9376424 132.20379069 -74.94455542 120.122659 -74.94369107 108.04150295 C-74.94335895 101.25898831 -74.946113 94.47650721 -74.95686913 87.69400024 C-74.966527 81.31810892 -74.96664518 74.94228859 -74.95935249 68.56639481 C-74.95830386 66.2238314 -74.96068596 63.88126362 -74.96671295 61.53870773 C-74.97439629 58.3461147 -74.96981232 55.1537691 -74.96208191 51.96118164 C-74.96722547 51.02976506 -74.97236904 50.09834848 -74.97766846 49.13870716 C-74.94789199 43.59093113 -74.83494476 39.2504721 -70.71484375 35.13037109 C-67.73388672 34.81152344 -67.73388672 34.81152344 -63.95703125 34.71630859 C-63.2939798 34.69694244 -62.63092834 34.67757629 -61.94778442 34.65762329 C-59.82860198 34.59781156 -57.70936525 34.55143722 -55.58984375 34.50537109 C-54.15362206 34.46719264 -52.7174233 34.42814098 -51.28125 34.38818359 C-47.75932439 34.29210984 -44.23722767 34.20808468 -40.71484375 34.13037109 C-40.70549805 33.30311523 -40.69615234 32.47585937 -40.68652344 31.62353516 C-40.63284056 27.87520694 -40.54918665 24.12812947 -40.46484375 20.38037109 C-40.45066406 19.07841797 -40.43648437 17.77646484 -40.421875 16.43505859 C-40.38964844 15.18466797 -40.35742188 13.93427734 -40.32421875 12.64599609 C-40.30327148 11.49389648 -40.28232422 10.34179688 -40.26074219 9.15478516 C-39.60543752 5.52423316 -38.60432204 4.35557132 -35.71484375 2.13037109 C-24.90925474 -1.47149191 -11.28722117 -0.02701286 0 0 Z M-25.71484375 15.13037109 C-25.71484375 89.71037109 -25.71484375 164.29037109 -25.71484375 241.13037109 C-9.87484375 241.79037109 5.96515625 242.45037109 22.28515625 243.13037109 C30.72521455 243.92875499 38.95616504 244.73833509 47.28515625 246.13037109 C48.31543945 246.29907715 49.34572266 246.4677832 50.40722656 246.64160156 C74.80472477 250.73707857 97.66168867 257.20533458 120.25170898 267.32348633 C122.23037415 268.2533145 122.23037415 268.2533145 124.28515625 268.13037109 C124.28515625 239.42037109 124.28515625 210.71037109 124.28515625 181.13037109 C120.03873925 184.77015709 116.14292216 188.17108503 112.28515625 192.13037109 C102.28515625 202.13037109 102.28515625 202.13037109 99.68359375 204.70849609 C98.26034361 206.14565422 96.85953535 207.6066165 95.51171875 209.11474609 C92.74670511 212.16300503 90.71785805 213.95729037 86.84765625 215.50537109 C82.94353155 215.0944106 82.35659883 214.64542715 79.58984375 212.11083984 C78.54147339 211.15516113 78.54147339 211.15516113 77.47192383 210.18017578 C76.75029053 209.50374023 76.02865723 208.82730469 75.28515625 208.13037109 C74.23074341 207.15052246 74.23074341 207.15052246 73.1550293 206.15087891 C71.0279301 204.14722853 68.93521378 202.11262688 66.84765625 200.06787109 C66.12900391 199.38660156 65.41035156 198.70533203 64.66992188 198.00341797 C61.79377011 195.17615264 59.60078315 192.80096896 57.875 189.13427734 C58.93054927 181.40363553 68.94415731 174.33906766 74.28125 169.03662109 C75.11479507 168.20449097 75.94834015 167.37236084 76.80714417 166.51501465 C79.44328887 163.88442174 82.0829073 161.25734668 84.72265625 158.63037109 C86.52171604 156.83633254 88.32054645 155.04206394 90.11914062 153.24755859 C94.50516437 148.87249984 98.89403767 144.50031598 103.28515625 140.13037109 C101.81214743 136.69473676 99.90325364 134.54452776 97.21850586 131.96362305 C96.38101303 131.15210281 95.5435202 130.34058258 94.6806488 129.50447083 C93.7754097 128.63465073 92.87017059 127.76483063 91.9375 126.86865234 C90.52095476 125.48542346 89.10443312 124.10216941 87.68931675 122.71747875 C84.20468263 119.30893161 80.71200363 115.9091654 77.19506836 112.53393555 C75.22095979 110.63833504 73.25806532 108.7323541 71.30628967 106.81376648 C69.47043148 105.00975154 67.61903886 103.22137667 65.75071716 101.45100403 C58.85203781 94.61069667 58.85203781 94.61069667 58.20922852 89.01000977 C58.24681274 87.08958862 58.24681274 87.08958862 58.28515625 85.13037109 C58.94515625 85.13037109 59.60515625 85.13037109 60.28515625 85.13037109 C61.63902561 83.48034282 62.97193767 81.81293239 64.28515625 80.13037109 C64.94515625 79.80037109 65.60515625 79.47037109 66.28515625 79.13037109 C66.28515625 78.47037109 66.28515625 77.81037109 66.28515625 77.13037109 C67.27515625 76.80037109 68.26515625 76.47037109 69.28515625 76.13037109 C69.28515625 75.47037109 69.28515625 74.81037109 69.28515625 74.13037109 C70.27515625 73.80037109 71.26515625 73.47037109 72.28515625 73.13037109 C72.28515625 72.47037109 72.28515625 71.81037109 72.28515625 71.13037109 C72.87683594 70.86611328 73.46851563 70.60185547 74.078125 70.32958984 C76.96361602 68.76172127 78.94155271 66.62121543 81.2109375 64.27490234 C84.56766356 62.42269757 86.62437065 63.16416908 90.28515625 64.13037109 C93.1384386 66.1953765 95.48239482 68.67514829 97.8984375 71.22802734 C98.94187569 72.29131508 98.94187569 72.29131508 100.00639343 73.37608337 C102.21817526 75.63455632 104.40857456 77.91240733 106.59765625 80.19287109 C108.80799037 82.47326031 111.02253818 84.74933094 113.24247742 87.02037048 C114.62112527 88.43306324 115.99355736 89.85185301 117.35920715 91.27711487 C117.97712631 91.91455124 118.59504547 92.55198761 119.23168945 93.20874023 C120.04607231 94.05693077 120.04607231 94.05693077 120.87690735 94.92225647 C122.2289069 96.34740967 122.2289069 96.34740967 124.28515625 96.13037109 C124.3613666 89.54678786 124.4138234 82.96331887 124.44995117 76.37939453 C124.46501589 74.14074451 124.48547158 71.9021239 124.51147461 69.66357422 C124.54795908 66.44149508 124.56490608 63.21980698 124.578125 59.99755859 C124.59360886 59.00045868 124.60909271 58.00335876 124.62504578 56.9760437 C124.62660775 50.49272581 123.92829166 45.95852598 119.33203125 41.04052734 C105.96487499 30.28769586 89.3627256 24.85176432 72.84765625 21.00537109 C71.80544922 20.75400391 70.76324219 20.50263672 69.68945312 20.24365234 C57.56073636 17.37125941 45.43926548 15.66887702 33.03515625 14.50537109 C32.3411673 14.43966919 31.64717834 14.37396729 30.93215942 14.30627441 C2.3334406 11.10110643 2.3334406 11.10110643 -25.71484375 15.13037109 Z M145.578125 38.43896484 C145.04082764 38.78628662 144.50353027 39.1336084 143.94995117 39.49145508 C139.36951603 44.00068827 138.0468345 47.8484614 137.83105469 54.1574707 C137.8316838 56.53264625 137.85403429 58.90788448 137.89453125 61.28271484 C137.90019104 62.53798477 137.90585083 63.7932547 137.91168213 65.08656311 C137.93021571 68.40287429 137.96606858 71.71805816 138.01049805 75.03405762 C138.05162346 78.42608974 138.06972971 81.81823895 138.08984375 85.21044922 C138.13385531 91.85073151 138.20072721 98.4904863 138.28515625 105.13037109 C141.82696304 101.59202477 141.82696304 101.59202477 145.34765625 98.03271484 C148.23718916 95.10240223 151.05401687 92.31335643 154.28515625 89.75537109 C154.94515625 89.21912109 155.60515625 88.68287109 156.28515625 88.13037109 C156.28515625 87.47037109 156.28515625 86.81037109 156.28515625 86.13037109 C157.77015625 85.63537109 157.77015625 85.63537109 159.28515625 85.13037109 C159.28515625 84.47037109 159.28515625 83.81037109 159.28515625 83.13037109 C159.86547607 82.88037354 160.4457959 82.63037598 161.04370117 82.37280273 C163.58964018 80.96159659 165.16818838 79.38071987 167.1484375 77.25146484 C167.87095703 76.49542969 168.59347656 75.73939453 169.33789062 74.96044922 C170.84084556 73.36916158 172.33571515 71.77019725 173.82226562 70.16357422 C177.03850709 66.82176521 179.50729094 64.45198023 183.828125 62.66552734 C189.11953451 63.37702761 191.62962847 66.43345998 195.28515625 70.13037109 C196.70984578 71.44546912 198.13694327 72.7579632 199.56640625 74.06787109 C200.97526078 75.41932784 202.38150634 76.77350951 203.78515625 78.13037109 C204.5121875 78.80326172 205.23921875 79.47615234 205.98828125 80.16943359 C211.13366793 85.17941536 211.13366793 85.17941536 211.890625 89.93115234 C210.70306558 96.2060631 206.0348615 99.33060689 201.28515625 103.13037109 C201.28515625 103.79037109 201.28515625 104.45037109 201.28515625 105.13037109 C200.29515625 105.46037109 199.30515625 105.79037109 198.28515625 106.13037109 C198.28515625 106.79037109 198.28515625 107.45037109 198.28515625 108.13037109 C197.62515625 108.13037109 196.96515625 108.13037109 196.28515625 108.13037109 C194.93128689 109.78039937 193.59837483 111.44780979 192.28515625 113.13037109 C191.29515625 113.62537109 191.29515625 113.62537109 190.28515625 114.13037109 C190.28515625 114.79037109 190.28515625 115.45037109 190.28515625 116.13037109 C189.29515625 116.46037109 188.30515625 116.79037109 187.28515625 117.13037109 C187.28515625 117.79037109 187.28515625 118.45037109 187.28515625 119.13037109 C186.29515625 119.46037109 185.30515625 119.79037109 184.28515625 120.13037109 C184.28515625 120.79037109 184.28515625 121.45037109 184.28515625 122.13037109 C183.29515625 122.46037109 182.30515625 122.79037109 181.28515625 123.13037109 C181.28515625 123.79037109 181.28515625 124.45037109 181.28515625 125.13037109 C180.74375 125.34435547 180.20234375 125.55833984 179.64453125 125.77880859 C176.44587655 127.61115052 174.07551141 130.12833715 171.53515625 132.75537109 C171.02855469 133.27099609 170.52195312 133.78662109 170 134.31787109 C168.75711723 135.58420448 167.52050349 136.85668549 166.28515625 138.13037109 C167.53522014 141.88056277 169.21847502 142.70555338 172.28515625 145.13037109 C172.90390625 145.91412109 173.52265625 146.69787109 174.16015625 147.50537109 C175.96118461 149.73017084 177.60489794 151.32122058 179.78515625 153.13037109 C181.89349016 154.88211576 183.50361836 156.40521053 185.22265625 158.56787109 C187.0893354 160.88707852 188.90226163 162.58893502 191.16015625 164.50537109 C194.37296906 167.24396799 197.03727661 170.10823219 199.70703125 173.36474609 C202.09077015 176.0317015 204.80164904 178.27195814 207.55078125 180.55224609 C210.05582925 182.83161409 211.20026939 184.58466985 211.72265625 187.94287109 C211.11250875 192.38823146 209.40013741 193.94122372 206.28515625 197.13037109 C205.62515625 197.46037109 204.96515625 197.79037109 204.28515625 198.13037109 C204.28515625 198.79037109 204.28515625 199.45037109 204.28515625 200.13037109 C203.29515625 200.46037109 202.30515625 200.79037109 201.28515625 201.13037109 C201.28515625 201.79037109 201.28515625 202.45037109 201.28515625 203.13037109 C200.29515625 203.46037109 199.30515625 203.79037109 198.28515625 204.13037109 C198.28515625 204.79037109 198.28515625 205.45037109 198.28515625 206.13037109 C197.29515625 206.46037109 196.30515625 206.79037109 195.28515625 207.13037109 C195.28515625 207.79037109 195.28515625 208.45037109 195.28515625 209.13037109 C194.62515625 209.13037109 193.96515625 209.13037109 193.28515625 209.13037109 C191.61848958 210.46370443 191.61848958 210.46370443 190.28515625 212.13037109 C190.28515625 212.79037109 190.28515625 213.45037109 190.28515625 214.13037109 C185.26192021 215.36414837 185.26192021 215.36414837 182.28515625 215.13037109 C180.13422418 213.77823778 178.5054279 212.2901368 176.73046875 210.47802734 C175.3707173 208.90304909 175.3707173 208.90304909 173.28515625 209.13037109 C172.97674805 208.33518066 172.97674805 208.33518066 172.66210938 207.52392578 C170.71091241 204.13216425 168.00971243 201.56986523 165.25390625 198.83349609 C164.66218628 198.23986267 164.07046631 197.64622925 163.46081543 197.03460693 C162.21250044 195.78493392 160.96166802 194.53777118 159.70849609 193.29296875 C157.78507628 191.38029157 155.87259526 189.4571399 153.9609375 187.53271484 C152.74673486 186.31983312 151.53191232 185.10757157 150.31640625 183.89599609 C149.74241089 183.31795227 149.16841553 182.73990845 148.57702637 182.14434814 C145.92483219 179.1195324 145.92483219 179.1195324 142.28515625 178.13037109 C141.85203125 177.17130859 141.85203125 177.17130859 141.41015625 176.19287109 C140.45692174 173.9783103 140.45692174 173.9783103 138.28515625 173.13037109 C137.4750281 178.09203535 137.14097036 182.89568577 137.15576172 187.92651367 C137.1540094 188.67225143 137.15225708 189.4179892 137.15045166 190.18632507 C137.14607875 192.63254173 137.1489559 195.07868505 137.15234375 197.52490234 C137.15166919 199.2397208 137.15069789 200.95453917 137.14944458 202.6693573 C137.1479736 206.25768955 137.15010209 209.84599684 137.15478516 213.43432617 C137.16046911 218.0102148 137.15720808 222.58604459 137.15121269 227.16193104 C137.14757982 230.7026157 137.14875836 234.24328668 137.15134048 237.78397179 C137.1520029 239.46989639 137.15120556 241.15582227 137.14886093 242.84174538 C137.13965048 251.32842393 137.21832812 259.69480112 138.28515625 268.13037109 C142.45897121 266.79524942 146.44543337 265.22788697 150.47265625 263.50537109 C168.32659467 256.18814533 187.29015251 251.35183679 206.28515625 248.13037109 C207.23100586 247.96827148 208.17685547 247.80617188 209.15136719 247.63916016 C228.49150971 244.36526083 247.61468947 242.81876809 267.19921875 242.03662109 C269.34873104 241.94750827 271.49822668 241.857993 273.64770508 241.76806641 C278.86000872 241.55086611 284.0725066 241.33909553 289.28515625 241.13037109 C289.43536604 212.48375042 289.58047104 183.8371082 289.71840385 155.19042561 C289.73467573 151.81192743 289.75099135 148.43342947 289.76733398 145.05493164 C289.77058691 144.38230563 289.77383983 143.70967961 289.77719133 143.01667099 C289.8300347 132.11153445 289.88642449 121.20641895 289.94411445 110.30130709 C290.0031878 99.11984676 290.05839908 87.93837108 290.11021179 76.7568745 C290.13945364 70.47296082 290.1704843 64.18906712 290.20569038 57.90518379 C290.23873054 51.99807172 290.26712527 46.09095606 290.29186249 40.18380356 C290.30180657 38.00887501 290.31348924 35.83395366 290.32698631 33.65904427 C290.34507501 30.70352715 290.35706924 27.74804844 290.3674469 24.79249573 C290.37765258 23.48366994 290.37765258 23.48366994 290.38806444 22.14840323 C290.39187491 20.14210287 290.34439375 18.13580037 290.28515625 16.13037109 C285.2784286 11.12364344 267.55344971 12.86246777 260.91015625 12.81787109 C222.18401057 12.97727508 178.80818592 16.8124915 145.578125 38.43896484 Z M-59.71484375 49.13037109 C-61.40471968 52.51012296 -60.84732996 56.34743895 -60.83509827 60.06460571 C-60.83595269 61.00144805 -60.83680712 61.93829039 -60.83768743 62.9035219 C-60.8393426 66.06200243 -60.83382024 69.22043056 -60.82836914 72.37890625 C-60.82808725 74.63533019 -60.82824504 76.89175422 -60.82881165 79.1481781 C-60.82909955 85.29043374 -60.82320394 91.43267001 -60.81623769 97.57492113 C-60.810003 103.98780247 -60.80940026 110.40068421 -60.80821228 116.81356812 C-60.80545339 127.58258464 -60.79919946 138.35159266 -60.7902832 149.12060547 C-60.78110788 160.21402958 -60.77402763 171.30745176 -60.76977539 182.40087891 C-60.76951267 183.08437545 -60.76924994 183.76787199 -60.76897926 184.47208054 C-60.76767425 187.90089158 -60.76641053 191.32970263 -60.76516736 194.75851369 C-60.7547962 223.21580441 -60.73710494 251.67308737 -60.71484375 280.13037109 C-59.46663487 280.13533631 -59.46663487 280.13533631 -58.19320965 280.14040184 C-37.96332907 280.22155442 -17.733524 280.31362129 2.49625111 280.41789818 C12.27914167 280.46806096 22.06202369 280.51450341 31.8449707 280.55224609 C40.36987707 280.58514462 48.89471791 280.62496391 57.41955203 280.67316115 C61.93510743 280.69844747 66.45061925 280.72022241 70.96622658 280.73371506 C75.21382798 280.74651612 79.46128004 280.76854921 83.70879936 280.79775429 C85.27009088 280.80684541 86.83140646 280.81252386 88.39272308 280.81458473 C90.52006832 280.81789651 92.64698738 280.83334382 94.77424622 280.85189819 C96.56206371 280.86019433 96.56206371 280.86019433 98.38599873 280.86865807 C101.28515625 281.13037109 101.28515625 281.13037109 104.28515625 283.13037109 C105.05859375 285.11865234 105.05859375 285.11865234 105.66015625 287.44287109 C107.65736551 293.8668844 111.49637862 297.12519669 117.40234375 300.28271484 C127.08061672 304.63994562 136.5054631 303.6498625 146.28515625 300.13037109 C149.68793437 298.33603457 149.68793437 298.33603457 152.28515625 296.13037109 C152.98640625 295.59412109 153.68765625 295.05787109 154.41015625 294.50537109 C156.88838247 291.36628455 158.02673174 288.02501547 159.35546875 284.27490234 C160.28515625 282.13037109 160.28515625 282.13037109 162.28515625 281.13037109 C164.41337427 281.02406774 166.54497168 280.98367967 168.67581177 280.97215271 C169.33745331 280.96722305 169.99909485 280.9622934 170.68078613 280.95721436 C172.91495495 280.94178252 175.14909528 280.93346245 177.38330078 280.92504883 C179.00554089 280.9153374 180.62777845 280.90519215 182.25001335 280.89464664 C186.60494792 280.86754083 190.95989261 280.84639399 195.31486511 280.82645416 C199.39735066 280.80686698 203.47979668 280.78194224 207.56225586 280.75744629 C219.51152632 280.6888735 231.46084488 280.62890099 243.41015625 280.56787109 C270.09890625 280.42349609 296.78765625 280.27912109 324.28515625 280.13037109 C324.28515625 203.90037109 324.28515625 127.67037109 324.28515625 49.13037109 C317.68515625 49.13037109 311.08515625 49.13037109 304.28515625 49.13037109 C304.27302597 52.85334724 304.27302597 52.85334724 304.26065063 56.65153503 C304.18362046 80.00455086 304.09567731 103.35750727 303.99762917 126.71044445 C303.94748127 138.71735036 303.90103857 150.72424937 303.86328125 162.73120117 C303.83036732 173.19496161 303.79053938 183.65866882 303.74236619 194.12237054 C303.71709531 199.66415546 303.69531571 205.20590504 303.68181229 210.74773216 C303.66899737 215.96219919 303.64694897 221.17654507 303.61777306 226.39094543 C303.60869285 228.30616256 303.60300602 230.2213992 303.60094261 232.13663673 C303.59762323 234.74932552 303.5821545 237.36167016 303.56362915 239.97428894 C303.56556388 240.73402344 303.56749862 241.49375795 303.56949198 242.27651471 C303.52667957 246.30887977 303.21649021 249.55096321 301.28515625 253.13037109 C298.67711223 254.4343931 296.64298313 254.33788759 293.72265625 254.43994141 C291.96380348 254.50602348 291.96380348 254.50602348 290.16941833 254.57344055 C288.88761185 254.61800888 287.60580536 254.66257721 286.28515625 254.70849609 C283.54814525 254.81298966 280.81131161 254.92186611 278.07446289 255.03051758 C277.36103005 255.05849017 276.64759722 255.08646276 275.9125452 255.11528301 C250.81858601 256.1035317 225.97508975 257.18520593 201.28515625 262.13037109 C200.40230957 262.30181641 199.51946289 262.47326172 198.60986328 262.64990234 C193.77646008 263.61169582 189.0243765 264.7769658 184.28515625 266.13037109 C183.49012695 266.35337891 182.69509766 266.57638672 181.87597656 266.80615234 C166.36602969 271.19233014 151.39652857 276.00552167 137.7265625 284.77099609 C133.79985089 286.95738912 130.65641576 287.06042631 126.28515625 286.13037109 C123.22638856 284.62264991 120.40234938 282.88259263 117.515625 281.06787109 C112.04382268 277.78611299 106.20691625 275.47290157 100.28515625 273.13037109 C98.70541016 272.50001953 98.70541016 272.50001953 97.09375 271.85693359 C80.78209278 265.69344338 63.52750276 261.62226377 46.28515625 259.13037109 C45.23392578 258.97133301 44.18269531 258.81229492 43.09960938 258.6484375 C33.00564019 257.19739575 22.96347018 256.5046452 12.78515625 256.00537109 C11.95731628 255.96234863 11.12947632 255.91932617 10.27655029 255.875 C-0.74138428 255.30364659 -11.72832604 254.89980331 -22.76367188 255.20410156 C-28.11827386 255.31503945 -32.59860791 254.79343647 -37.71484375 253.13037109 C-39.27502591 250.01000677 -38.8650256 246.69164719 -38.86633301 243.26585388 C-38.87056542 242.44405657 -38.87479783 241.62225927 -38.8791585 240.77555901 C-38.89223317 238.00637678 -38.89822035 235.23722337 -38.90429688 232.46801758 C-38.91223532 230.4890729 -38.92062295 228.51012998 -38.9294281 226.53118896 C-38.9475128 222.26249639 -38.96251838 217.99380775 -38.97520447 213.72509575 C-38.99537905 206.9826445 -39.02303679 200.24023697 -39.05187988 193.49781799 C-39.11715561 177.96917023 -39.17255197 162.44049007 -39.22786713 146.9118042 C-39.2786566 132.68076542 -39.33149745 118.4497425 -39.39239264 104.21874291 C-39.42081838 97.50864578 -39.44438653 90.79855397 -39.46431732 84.08842647 C-39.47766154 79.92346348 -39.49507601 75.7585249 -39.51362801 71.59358215 C-39.52141347 69.65410031 -39.52747006 67.71461069 -39.53172112 65.77511787 C-39.53772654 63.1393381 -39.54975407 60.50365451 -39.56335449 57.86790466 C-39.56365048 57.09010114 -39.56394647 56.31229761 -39.56425142 55.51092428 C-39.27233946 52.02902372 -39.27233946 52.02902372 -40.71484375 49.13037109 C-42.13054498 49.04385498 -43.55043875 49.02332205 -44.96875 49.03271484 C-46.24975586 49.03754883 -46.24975586 49.03754883 -47.55664062 49.04248047 C-48.45447266 49.05085938 -49.35230469 49.05923828 -50.27734375 49.06787109 C-51.17904297 49.07238281 -52.08074219 49.07689453 -53.00976562 49.08154297 C-55.24485689 49.09336885 -57.47981812 49.10984889 -59.71484375 49.13037109 Z " fill="#000001" transform="translate(154.71484375,79.86962890625)"/>
<path d="" fill="#000000" transform="translate(0,0)"/>
<path d="" fill="#000000" transform="translate(0,0)"/>
<path d="" fill="#000000" transform="translate(0,0)"/>
<path d="" fill="#FFFFFF" transform="translate(0,0)"/>
<path d="" fill="#000000" transform="translate(0,0)"/>
<path d="" fill="#000000" transform="translate(0,0)"/>
<path d="" fill="#000000" transform="translate(0,0)"/>
<path d="" fill="#000000" transform="translate(0,0)"/>
<path d="" fill="#000000" transform="translate(0,0)"/>
<path d="" fill="#000000" transform="translate(0,0)"/>
<path d="" fill="#000000" transform="translate(0,0)"/>
<path d="" fill="#000000" transform="translate(0,0)"/>
<path d="" fill="#000000" transform="translate(0,0)"/>
<path d="" fill="#000000" transform="translate(0,0)"/>
<path d="" fill="#000000" transform="translate(0,0)"/>
<path d="" fill="#000000" transform="translate(0,0)"/>
<path d="" fill="#000000" transform="translate(0,0)"/>
<path d="" fill="#000000" transform="translate(0,0)"/>
<path d="" fill="#000000" transform="translate(0,0)"/>
<path d="" fill="#000000" transform="translate(0,0)"/>
<path d="" fill="#000000" transform="translate(0,0)"/>
<path d="" fill="#000000" transform="translate(0,0)"/>
<path d="" fill="#000000" transform="translate(0,0)"/>
<path d="" fill="#000000" transform="translate(0,0)"/>
<path d="" fill="#000000" transform="translate(0,0)"/>
<path d="" fill="#000000" transform="translate(0,0)"/>
<path d="" fill="#000000" transform="translate(0,0)"/>
<path d="" fill="#000000" transform="translate(0,0)"/>
<path d="" fill="#000000" transform="translate(0,0)"/>
<path d="" fill="#000000" transform="translate(0,0)"/>
<path d="" fill="#000000" transform="translate(0,0)"/>
<path d="" fill="#000000" transform="translate(0,0)"/>
<path d="" fill="#000000" transform="translate(0,0)"/>
<path d="" fill="#000000" transform="translate(0,0)"/>
<path d="" fill="#000000" transform="translate(0,0)"/>
<path d="" fill="#000000" transform="translate(0,0)"/>
<path d="" fill="#000000" transform="translate(0,0)"/>
<path d="" fill="#000000" transform="translate(0,0)"/>
<path d="" fill="#000000" transform="translate(0,0)"/>
<path d="" fill="#000000" transform="translate(0,0)"/>
<path d="" fill="#000000" transform="translate(0,0)"/>
<path d="" fill="#000000" transform="translate(0,0)"/>
<path d="" fill="#000000" transform="translate(0,0)"/>
<path d="" fill="#000000" transform="translate(0,0)"/>
<path d="" fill="#000000" transform="translate(0,0)"/>
<path d="" fill="#000000" transform="translate(0,0)"/>
<path d="" fill="#000000" transform="translate(0,0)"/>
<path d="" fill="#000000" transform="translate(0,0)"/>
<path d="" fill="#000000" transform="translate(0,0)"/>
<path d="" fill="#000000" transform="translate(0,0)"/>
<path d="" fill="#000000" transform="translate(0,0)"/>
<path d="" fill="#000000" transform="translate(0,0)"/>
<path d="" fill="#000000" transform="translate(0,0)"/>
<path d="" fill="#000000" transform="translate(0,0)"/>
<path d="" fill="#000000" transform="translate(0,0)"/>
<path d="" fill="#000000" transform="translate(0,0)"/>
<path d="" fill="#000000" transform="translate(0,0)"/>
<path d="" fill="#000000" transform="translate(0,0)"/>
<path d="" fill="#000000" transform="translate(0,0)"/>
<path d="" fill="#000000" transform="translate(0,0)"/>
<path d="" fill="#000000" transform="translate(0,0)"/>
<path d="" fill="#000000" transform="translate(0,0)"/>
<path d="" fill="#000000" transform="translate(0,0)"/>
<path d="" fill="#000000" transform="translate(0,0)"/>
<path d="" fill="#000000" transform="translate(0,0)"/>
<path d="" fill="#000000" transform="translate(0,0)"/>
</svg>
