<?xml version="1.0" encoding="UTF-8"?>
<svg version="1.1" xmlns="http://www.w3.org/2000/svg" width="566" height="440">
<path d="M0 0 C2.56850095 0.00535866 5.13682656 0.00001667 7.70532227 -0.00634766 C23.6964059 -0.01534464 39.3181286 0.75619949 55.13696289 3.25537109 C55.81618805 3.36197052 56.49541321 3.46856995 57.19522095 3.57839966 C75.25966509 6.45065758 93.40789484 10.4275056 109.63696289 19.13037109 C111.34432617 19.98115234 111.34432617 19.98115234 113.08618164 20.84912109 C122.57185872 25.69287109 122.57185872 25.69287109 126.19946289 29.63037109 C127.40602539 30.86787109 127.40602539 30.86787109 128.63696289 32.13037109 C131.98950669 31.81958301 132.81655178 30.9630269 135.38696289 28.56787109 C141.18409257 23.36049271 148.63246943 20.38749335 155.63696289 17.13037109 C156.6849707 16.62993286 156.6849707 16.62993286 157.75415039 16.11938477 C172.46652363 9.28371403 188.86932366 6.02115422 204.76196289 3.25537109 C206.50074707 2.95095093 206.50074707 2.95095093 208.2746582 2.64038086 C223.3224432 0.16488109 238.28150491 -0.03205528 253.48803711 0 C256.4999701 0.00534979 259.51175321 0.00002835 262.52368164 -0.00634766 C271.44200286 -0.01128633 280.35938042 0.04921076 289.26977539 0.45068359 C291.23648193 0.53600342 291.23648193 0.53600342 293.24291992 0.62304688 C296.83794734 1.16041322 298.7955921 1.88893783 301.63696289 4.13037109 C303.91508621 7.33098306 303.93752897 10.34961767 304.05102539 14.20849609 C304.08969727 15.36865234 304.12836914 16.52880859 304.16821289 17.72412109 C304.21461914 19.53396484 304.21461914 19.53396484 304.26196289 21.38037109 C304.30063477 22.60240234 304.33930664 23.82443359 304.37915039 25.08349609 C304.47338397 28.0989705 304.55899744 31.11443937 304.63696289 34.13037109 C305.49451172 34.14495361 306.35206055 34.15953613 307.2355957 34.17456055 C310.42656702 34.23572587 313.61689876 34.30989871 316.80737305 34.39282227 C318.18648956 34.42601302 319.56574 34.45406327 320.94506836 34.47680664 C322.93118595 34.51045752 324.91692848 34.56431838 326.90258789 34.61865234 C328.09658203 34.64483643 329.29057617 34.67102051 330.52075195 34.69799805 C333.90662568 35.1677867 335.32965967 35.62781869 337.63696289 38.13037109 C339.06121756 42.928728 338.77899385 47.9209569 338.77067566 52.87852478 C338.77294122 53.86678318 338.77520677 54.85504158 338.77754098 55.87324721 C338.7838762 59.1880523 338.78305192 62.50281647 338.78222656 65.81762695 C338.78521832 68.19283603 338.78862088 70.56804462 338.79240417 72.94325256 C338.80032735 78.72716811 338.80345871 84.5110712 338.80401655 90.2949919 C338.80449195 94.99638669 338.80654786 99.69777811 338.80971718 104.39917183 C338.81852143 117.73092069 338.82313683 131.0626615 338.8223867 144.39441328 C338.82232677 145.47208764 338.82232677 145.47208764 338.82226562 146.5715332 C338.82222474 147.29086061 338.82218386 148.01018801 338.82214174 148.75131322 C338.82173517 160.41256955 338.83130809 172.0737936 338.84540399 183.7350406 C338.85976615 195.71110159 338.86667429 207.68714683 338.86581022 219.66321665 C338.86547823 226.38595955 338.86822625 233.10866859 338.87898827 239.83140373 C338.888653 246.15230638 338.88875957 252.47313745 338.88147163 258.79404259 C338.88042383 261.11522272 338.88280025 263.43640727 338.88883209 265.7575798 C338.89652709 268.92354922 338.89192363 272.08926986 338.88420105 275.25523376 C338.88934461 276.1759556 338.89448818 277.09667745 338.8997876 278.04529995 C338.874482 282.7327098 338.7925129 286.85880961 336.63696289 291.13037109 C332.8706105 294.2961469 329.74470936 294.49739594 324.92591858 294.46853638 C323.93355726 294.46898148 323.93355726 294.46898148 322.92114824 294.46943557 C320.71162743 294.46701983 318.50284724 294.4433478 316.29345703 294.41992188 C314.70642027 294.41420232 313.11937773 294.40993082 311.53233337 294.40699768 C308.11812344 294.39839956 304.70410413 294.38115138 301.28996468 294.35766983 C295.89008614 294.32219694 290.49041976 294.31586748 285.09043884 294.31539917 C269.7363642 294.31043971 254.38262494 294.28119662 239.02880859 294.18896484 C230.54622715 294.13825361 222.06420427 294.11957405 213.58148092 294.13655269 C209.09385304 294.14408054 204.60764855 294.13464268 200.12025642 294.08530045 C195.89994655 294.03889699 191.68163604 294.03403238 187.46117592 294.06088066 C185.91396765 294.06323141 184.36664668 294.05019595 182.81972122 294.02052116 C174.49147053 293.57984188 174.49147053 293.57984188 167.42342949 297.20534897 C165.75578106 299.63604399 165.75578106 299.63604399 164.60080624 302.19909477 C164.28273793 302.83641596 163.96466963 303.47373714 163.63696289 304.13037109 C162.97696289 304.13037109 162.31696289 304.13037109 161.63696289 304.13037109 C161.30696289 305.12037109 160.97696289 306.11037109 160.63696289 307.13037109 C158.70336914 308.63037109 158.70336914 308.63037109 156.19946289 310.13037109 C155.39637695 310.62537109 154.59329102 311.12037109 153.76586914 311.63037109 C146.04940187 315.32965128 138.71603578 316.6675398 130.19946289 316.56787109 C128.82032715 316.55542358 128.82032715 316.55542358 127.41333008 316.54272461 C116.01570845 316.25909623 108.02816775 312.89223558 99.63696289 305.13037109 C97.03111642 302.25725832 95.35539874 299.56724279 93.63696289 296.13037109 C90.81772887 294.72075408 88.4655937 294.995914 85.31118774 294.98561096 C84.65484923 294.98208412 83.99851071 294.97855727 83.32228315 294.97492355 C81.112879 294.96420983 78.90351792 294.96055096 76.6940918 294.95678711 C75.11409827 294.9504839 73.53410654 294.94371836 71.95411682 294.93652344 C68.54648839 294.92183753 65.1388669 294.9101193 61.73122025 294.90057564 C56.34473687 294.88514743 50.95831268 294.86119863 45.5718689 294.8356781 C30.2531101 294.76441028 14.93431738 294.70467232 -0.38452148 294.65356445 C-8.84096051 294.62527599 -17.29734068 294.58990286 -25.75371802 294.5469107 C-31.109878 294.52011067 -36.46597139 294.50222244 -41.82218528 294.49087346 C-45.15368655 294.481756 -48.48510685 294.46439818 -51.81656075 294.44469452 C-53.36292436 294.43721276 -54.90930873 294.43313758 -56.45569038 294.4326992 C-58.56505293 294.43161827 -60.67400259 294.41838522 -62.78329468 294.40211487 C-63.96427923 294.39788293 -65.14526379 294.39365099 -66.36203575 294.38929081 C-71.01946133 293.9874585 -71.01946133 293.9874585 -73.36303711 292.13037109 C-75.89032829 287.0045151 -75.64383661 281.76355518 -75.61700439 276.17930603 C-75.62012438 275.18132053 -75.62324436 274.18333504 -75.62645888 273.15510756 C-75.63443171 269.81338715 -75.62811795 266.47184869 -75.62182617 263.13012695 C-75.62453633 260.73344313 -75.6280974 258.33676014 -75.63244629 255.94007874 C-75.64062176 250.10782424 -75.63942175 244.27562749 -75.63362101 238.44337123 C-75.62910198 233.70337338 -75.62849265 228.96338996 -75.63066864 224.22339058 C-75.63112834 223.2109932 -75.63112834 223.2109932 -75.63159733 222.17814334 C-75.63223678 220.8069932 -75.63288521 219.43584306 -75.63354251 218.06469292 C-75.63924347 205.21223738 -75.63269135 192.35981038 -75.62194178 179.50735951 C-75.61300444 168.48023385 -75.61456025 157.45315029 -75.6237793 146.42602539 C-75.63448255 133.61762075 -75.63869631 120.80924111 -75.63255477 108.00083262 C-75.63191768 106.63506703 -75.63128893 105.26930144 -75.63066864 103.90353584 C-75.63036009 103.23156642 -75.63005154 102.55959701 -75.62973364 101.86726488 C-75.62800701 97.13264881 -75.63092105 92.3980486 -75.63562775 87.66343498 C-75.64139716 81.2916277 -75.63741166 74.91990009 -75.62583923 68.54810143 C-75.6231906 66.20715212 -75.62396118 63.86619614 -75.62836456 61.52524948 C-75.63381327 58.33489273 -75.6269939 55.14479281 -75.61700439 51.95445251 C-75.62146584 51.02371806 -75.62592728 50.0929836 -75.63052392 49.13404506 C-75.58058988 40.93660565 -75.58058988 40.93660565 -73.36303711 37.13037109 C-69.77881415 34.74088912 -67.99071115 34.82803941 -63.72631836 34.71630859 C-62.42758789 34.67763672 -61.12885742 34.63896484 -59.79077148 34.59912109 C-58.41903138 34.56766593 -57.0472865 34.53641859 -55.67553711 34.50537109 C-54.29204926 34.46717913 -52.90858488 34.42812667 -51.52514648 34.38818359 C-48.13791261 34.29376592 -44.75068642 34.20818991 -41.36303711 34.13037109 C-41.35369141 33.30311523 -41.3443457 32.47585937 -41.3347168 31.62353516 C-41.28103392 27.87520694 -41.19738001 24.12812947 -41.11303711 20.38037109 C-41.09885742 19.07841797 -41.08467773 17.77646484 -41.07006836 16.43505859 C-41.0378418 15.18466797 -41.00561523 13.93427734 -40.97241211 12.64599609 C-40.95146484 11.49389648 -40.93051758 10.34179688 -40.90893555 9.15478516 C-40.25363088 5.52423316 -39.2525154 4.35557132 -36.36303711 2.13037109 C-25.42157089 -1.51678431 -11.45585468 -0.02831564 0 0 Z M-26.36303711 15.13037109 C-26.36303711 89.71037109 -26.36303711 164.29037109 -26.36303711 241.13037109 C-2.10803711 242.12037109 -2.10803711 242.12037109 22.63696289 243.13037109 C32.42194556 244.23882616 41.98165853 245.37989796 51.63696289 247.13037109 C52.71719727 247.32002441 53.79743164 247.50967773 54.91040039 247.70507812 C77.32410762 251.69469139 97.82652456 257.65080914 118.51831055 267.1940918 C120.75279281 268.22132858 120.75279281 268.22132858 123.63696289 269.13037109 C123.70701288 240.54957593 123.75993143 211.96879361 123.79239941 183.38792992 C123.80787487 170.11764025 123.82897744 156.84740389 123.86328125 143.57714844 C123.89316272 132.01214933 123.91253295 120.44718883 123.91922837 108.8821522 C123.92314273 102.75733768 123.93235629 96.63263362 123.95415306 90.50785446 C123.97449832 84.7443067 123.9808006 78.98091501 123.97628593 73.21733475 C123.97711201 71.10094607 123.98308923 68.98455223 123.99457932 66.86819458 C124.00949256 63.97992047 124.00592058 61.09223658 123.99772644 58.20394897 C124.00646496 57.3654174 124.01520349 56.52688582 124.02420682 55.6629442 C123.97437242 49.16958541 122.47912756 45.10105888 117.94946289 40.25537109 C111.9279869 35.40509128 104.62262391 32.32873019 97.63696289 29.13037109 C96.12682617 28.43234375 96.12682617 28.43234375 94.58618164 27.72021484 C67.38548526 16.27310175 1.72946838 1.08411835 -26.36303711 15.13037109 Z M139.63696289 43.13037109 C137.2643514 46.76035052 137.37679306 50.00012025 137.35848999 54.26751709 C137.34980139 55.34746095 137.34980139 55.34746095 137.34093726 56.44922185 C137.32392553 58.86349141 137.32105935 61.27756986 137.31811523 63.69189453 C137.30881525 65.42379728 137.29864648 67.15569554 137.28767395 68.8875885 C137.26030073 73.60215026 137.24519174 78.31668195 137.23224592 83.03130245 C137.2165717 87.99317226 137.18977265 92.95498212 137.16421509 97.91680908 C137.11733109 107.35230222 137.08066762 116.78780709 137.04754221 126.22335744 C137.00976714 136.83146448 136.96005894 147.43950455 136.90955806 158.04755735 C136.81062974 178.9658674 136.71609723 199.88421403 136.65914834 220.80268598 C136.64569838 225.63373813 136.62686014 230.46472651 136.60335529 235.29573989 C136.58982654 238.26849599 136.58048975 241.24125476 136.57225728 244.21402979 C136.56544388 246.21561153 136.55356137 248.21717405 136.54147911 250.21873093 C136.52910739 256.29041492 136.68850453 262.12956258 137.63696289 268.13037109 C141.97899426 266.73565799 146.17310318 265.12209978 150.38696289 263.38037109 C171.62217511 254.85900103 193.27328335 249.88466207 215.91967773 246.53833008 C218.10222913 246.21065322 220.27748258 245.83453967 222.44946289 245.44287109 C227.72570493 246.58088408 230.63891564 250.8162979 233.63696289 255.13037109 C233.63696289 255.79037109 233.63696289 256.45037109 233.63696289 257.13037109 C230.71047802 258.10586605 228.09910012 258.38108568 225.04150391 258.62353516 C195.53280269 261.0720837 162.28623111 268.68586062 137.07055664 284.76708984 C133.18593415 286.94322668 129.87640026 287.09024371 125.63696289 286.13037109 C122.78099421 284.70418749 120.06575402 283.13383149 117.34082031 281.47338867 C104.90220612 273.94988788 91.00965135 269.71275796 77.0859375 265.81762695 C75.42927391 265.35271737 73.77644716 264.87394929 72.12744141 264.38256836 C64.29744601 262.1125734 56.37895994 260.76980753 48.32446289 259.56787109 C47.60698883 259.45987183 46.88951477 259.35187256 46.15029907 259.24060059 C27.80457303 256.51044505 9.43489785 255.29249042 -9.10131836 254.89990234 C-9.92467178 254.88146271 -10.74802521 254.86302307 -11.59632874 254.84402466 C-15.64344221 254.75528035 -19.6893811 254.68428799 -23.73730469 254.64697266 C-25.20890909 254.62226813 -26.68050778 254.59722018 -28.15209961 254.57177734 C-30.09656982 254.55159546 -30.09656982 254.55159546 -32.08032227 254.53100586 C-35.72751516 254.08588883 -36.89254847 253.80303327 -39.36303711 251.13037109 C-39.7671693 248.32596423 -39.91005209 245.9085148 -39.88201904 243.10090637 C-39.88952029 242.27346552 -39.89702155 241.44602467 -39.90475011 240.59350985 C-39.92510749 237.81102993 -39.916909 235.02935865 -39.90893555 232.24682617 C-39.91766619 230.25625295 -39.92815019 228.26568675 -39.94026184 226.27513123 C-39.9682047 220.86220289 -39.9715247 215.44950261 -39.97054195 210.03651261 C-39.97366395 204.38298786 -39.99926722 198.72956691 -40.02252197 193.07609558 C-40.0631403 182.36640838 -40.08343639 171.65678216 -40.09649587 160.94702977 C-40.11234618 148.7560853 -40.15075346 136.5652449 -40.19108915 124.37436068 C-40.27356792 99.29306571 -40.32761016 74.21177352 -40.36303711 49.13037109 C-43.48652951 48.87609192 -46.61150532 48.6562479 -49.73803711 48.44287109 C-50.62749023 48.37003906 -51.51694336 48.29720703 -52.43334961 48.22216797 C-53.28413086 48.16738281 -54.13491211 48.11259766 -55.01147461 48.05615234 C-55.79699707 47.99854736 -56.58251953 47.94094238 -57.3918457 47.8815918 C-58.04233887 47.96368896 -58.69283203 48.04578613 -59.36303711 48.13037109 C-62.01824007 52.11317554 -61.63406865 55.56228385 -61.60354614 60.18486023 C-61.60525499 61.12255699 -61.60696384 62.06025376 -61.60872447 63.02636558 C-61.61202989 66.18179763 -61.60099834 69.33701904 -61.59008789 72.49243164 C-61.589524 74.74900304 -61.58983989 77.00557481 -61.5909729 79.262146 C-61.59154829 85.40023428 -61.57976381 91.53824489 -61.56582499 97.67631507 C-61.55334868 104.08651829 -61.55214958 110.49672316 -61.54977417 116.90693665 C-61.54425804 127.66998906 -61.53175341 138.4330074 -61.51391602 149.19604492 C-61.4955615 160.28263201 -61.4814029 171.36921134 -61.47290039 182.45581055 C-61.47237494 183.13904436 -61.4718495 183.82227818 -61.47130813 184.52621605 C-61.46869808 187.95375642 -61.46617065 191.38129684 -61.46368432 194.80883729 C-61.44294666 223.24936824 -61.40756808 251.68986814 -61.36303711 280.13037109 C-60.11482823 280.13533631 -60.11482823 280.13533631 -58.84140301 280.14040184 C-38.61152243 280.22155442 -18.38171736 280.31362129 1.84805775 280.41789818 C11.63094831 280.46806096 21.41383033 280.51450341 31.19677734 280.55224609 C39.72168371 280.58514462 48.24652455 280.62496391 56.77135867 280.67316115 C61.28691407 280.69844747 65.80242589 280.72022241 70.31803322 280.73371506 C74.56563462 280.74651612 78.81308668 280.76854921 83.060606 280.79775429 C84.62189752 280.80684541 86.1832131 280.81252386 87.74452972 280.81458473 C89.87187496 280.81789651 91.99879402 280.83334382 94.12605286 280.85189819 C95.31793118 280.85742895 96.50980951 280.86295971 97.73780537 280.86865807 C100.63696289 281.13037109 100.63696289 281.13037109 103.63696289 283.13037109 C104.41040039 285.11865234 104.41040039 285.11865234 105.01196289 287.44287109 C107.00917215 293.8668844 110.84818526 297.12519669 116.75415039 300.28271484 C126.43242337 304.63994562 135.85726974 303.6498625 145.63696289 300.13037109 C149.03974101 298.33603457 149.03974101 298.33603457 151.63696289 296.13037109 C152.33821289 295.59412109 153.03946289 295.05787109 153.76196289 294.50537109 C156.24018911 291.36628455 157.37853838 288.02501547 158.70727539 284.27490234 C159.63696289 282.13037109 159.63696289 282.13037109 161.63696289 281.13037109 C163.76518091 281.02406774 165.89677832 280.98367967 168.02761841 280.97215271 C168.68925995 280.96722305 169.35090149 280.9622934 170.03259277 280.95721436 C172.26676159 280.94178252 174.50090192 280.93346245 176.73510742 280.92504883 C178.35734753 280.9153374 179.97958509 280.90519215 181.60181999 280.89464664 C185.95675456 280.86754083 190.31169926 280.84639399 194.66667175 280.82645416 C198.7491573 280.80686698 202.83160333 280.78194224 206.9140625 280.75744629 C218.86333296 280.6888735 230.81265152 280.62890099 242.76196289 280.56787109 C269.45071289 280.42349609 296.13946289 280.27912109 323.63696289 280.13037109 C323.63696289 203.90037109 323.63696289 127.67037109 323.63696289 49.13037109 C317.03696289 49.13037109 310.43696289 49.13037109 303.63696289 49.13037109 C303.30696289 91.70037109 302.97696289 134.27037109 302.63696289 178.13037109 C298.34696289 178.13037109 294.05696289 178.13037109 289.63696289 178.13037109 C289.63696289 124.67037109 289.63696289 71.21037109 289.63696289 16.13037109 C250.06927532 4.8253175 169.91095837 12.11798548 139.63696289 43.13037109 Z " fill="#030305" transform="translate(155.363037109375,79.86962890625)"/>
<path d="M0 0 C4.29737609 2.06508151 7.85572424 5.10296432 11.3828125 8.27734375 C13.82155679 7.1934574 15.63566616 6.06549339 17.6953125 4.33984375 C23.25460415 0.07341062 28.38118924 -1.26485383 35.3203125 -1.16015625 C36.37690063 -1.14879639 36.37690063 -1.14879639 37.45483398 -1.13720703 C43.02999556 -0.96025878 46.94742909 -0.06737161 51.3828125 3.27734375 C52.31673828 3.93089844 52.31673828 3.93089844 53.26953125 4.59765625 C60.10357519 9.84138807 63.02640365 16.82411312 64.31640625 25.2265625 C64.70867244 43.24773254 51.16378049 57.77429909 39.72265625 70.15625 C32.06115472 78.08855571 23.56410639 85.15648116 14.3828125 91.27734375 C9.48829885 91.05062241 6.92381303 89.55263778 3.2578125 86.40234375 C2.30648437 85.58636719 1.35515625 84.77039063 0.375 83.9296875 C-0.61242187 83.05441406 -1.59984375 82.17914063 -2.6171875 81.27734375 C-3.60460937 80.41238281 -4.59203125 79.54742187 -5.609375 78.65625 C-19.77166342 66.08212654 -37.26972746 49.61293544 -38.8203125 29.6640625 C-38.99219261 19.76663303 -36.54851277 12.53105625 -29.6171875 5.27734375 C-27.33936348 3.61088375 -25.18670661 2.51451962 -22.6171875 1.27734375 C-22.04742187 0.9215625 -21.47765625 0.56578125 -20.890625 0.19921875 C-15.0515249 -2.16852631 -5.97875471 -1.65085018 0 0 Z " fill="#000101" transform="translate(409.6171875,263.72265625)"/>
<path d="M0 0 C1.27230469 0.00902344 2.54460937 0.01804687 3.85546875 0.02734375 C5.31919922 0.04474609 5.31919922 0.04474609 6.8125 0.0625 C6.8125 0.3925 6.8125 0.7225 6.8125 1.0625 C6.01585937 1.18367188 5.21921875 1.30484375 4.3984375 1.4296875 C-3.56541091 2.59164042 -3.56541091 2.59164042 -11.1875 5.0625 C-12.55366579 7.79483158 -12.38571243 10.07440444 -12.46875 13.12890625 C-12.50613281 14.33611328 -12.54351562 15.54332031 -12.58203125 16.78710938 C-12.65245102 19.34960643 -12.72276319 21.91210644 -12.79296875 24.47460938 C-12.83035156 25.68052734 -12.86773437 26.88644531 -12.90625 28.12890625 C-12.93654297 29.24209229 -12.96683594 30.35527832 -12.99804688 31.50219727 C-13.1875 34.0625 -13.1875 34.0625 -14.1875 35.0625 C-16.21206532 35.1966159 -18.24097356 35.26610263 -20.26953125 35.30859375 C-21.51154297 35.34146484 -22.75355469 35.37433594 -24.03320312 35.40820312 C-26.66593406 35.46912797 -29.2987509 35.52645245 -31.93164062 35.58007812 C-33.80045898 35.63131836 -33.80045898 35.63131836 -35.70703125 35.68359375 C-37.42563354 35.72117798 -37.42563354 35.72117798 -39.17895508 35.75952148 C-42.10606214 36.05429872 -43.65192233 36.68964662 -46.1875 38.0625 C-46.21029391 69.74958356 -46.22800001 101.4366648 -46.23856533 133.12375464 C-46.23981609 136.86147446 -46.24111041 140.59919427 -46.24243164 144.33691406 C-46.24269395 145.08105252 -46.24295626 145.82519098 -46.24322652 146.59187908 C-46.24758234 158.65383558 -46.25546941 170.71578733 -46.2646528 182.777741 C-46.27399177 195.14686609 -46.27955613 207.5159887 -46.28158849 219.88511717 C-46.28296321 227.52256124 -46.28731106 235.1599919 -46.29541647 242.79743184 C-46.30130838 248.64573093 -46.30195834 254.49402306 -46.30060768 260.34232521 C-46.30088401 262.74742147 -46.30288907 265.15251822 -46.30670547 267.55761147 C-46.31164283 270.82808943 -46.3104981 274.09850886 -46.30775452 277.36898804 C-46.31066736 278.33200848 -46.3135802 279.29502892 -46.31658131 280.2872318 C-46.31459026 281.1585794 -46.31259921 282.02992699 -46.31054783 282.92767906 C-46.31092755 283.68332252 -46.31130727 284.43896598 -46.3116985 285.21750772 C-46.30029809 287.15867879 -46.30029809 287.15867879 -45.1875 289.0625 C-41.82402957 290.18365681 -39.28078054 290.19568162 -35.73474121 290.20726013 C-35.0768427 290.21078698 -34.4189442 290.21431382 -33.74110937 290.21794754 C-31.53247728 290.22863815 -29.32388832 290.23231609 -27.11523438 290.23608398 C-25.53347084 290.24238885 -23.95170909 290.24915458 -22.36994934 290.25634766 C-18.96179066 290.27102025 -15.55363886 290.28274377 -12.14546204 290.29229546 C-6.75917331 290.30773447 -1.37294356 290.3316823 4.01330566 290.35719299 C19.33028441 290.42843535 34.64729662 290.48823656 49.96435547 290.53930664 C58.42225717 290.56758216 66.88009987 290.60294577 75.33793974 290.64596039 C80.69521471 290.67277535 86.05242294 290.69065407 91.40975189 290.70199764 C94.73901911 290.71110602 98.06820499 290.72845905 101.3974247 290.74817657 C102.94420916 290.75566678 104.49101446 290.75973402 106.037817 290.76017189 C108.14528743 290.76125046 110.25234164 290.77446192 112.35974121 290.79075623 C113.54034874 290.79498816 114.72095627 290.7992201 115.93733978 290.80358028 C118.8125 291.0625 118.8125 291.0625 121.8125 293.0625 C122.98828125 295.05078125 122.98828125 295.05078125 124.125 297.375 C129.04322429 306.40376365 136.66255852 309.11200598 145.8125 313.0625 C143.33444251 313.96412733 142.09886292 314.15300849 139.55078125 313.34765625 C131.10265892 309.08958493 123.54460074 304.06344885 119.8125 295.0625 C116.99326598 293.65288299 114.64113081 293.92804291 111.48672485 293.91773987 C110.83038634 293.91421302 110.17404782 293.91068618 109.49782026 293.90705246 C107.28841611 293.89633874 105.07905503 293.89267987 102.86962891 293.88891602 C101.28963538 293.8826128 99.70964365 293.87584726 98.12965393 293.86865234 C94.7220255 293.85396644 91.31440401 293.8422482 87.90675735 293.83270454 C82.52027398 293.81727633 77.13384979 293.79332754 71.74740601 293.76780701 C56.42864721 293.69653919 41.10985449 293.63680123 25.79101562 293.58569336 C17.3345766 293.55740489 8.87819643 293.52203176 0.42181909 293.47903961 C-4.93434089 293.45223958 -10.29043428 293.43435135 -15.64664817 293.42300236 C-18.97814944 293.4138849 -22.30956974 293.39652709 -25.64102364 293.37682343 C-27.18738725 293.36934166 -28.73377162 293.36526649 -30.28015327 293.36482811 C-32.38951582 293.36374717 -34.49846548 293.35051413 -36.60775757 293.33424377 C-37.78874212 293.33001184 -38.96972668 293.3257799 -40.18649864 293.32141972 C-44.84392422 292.91958741 -44.84392422 292.91958741 -47.1875 291.0625 C-49.71479118 285.93664401 -49.4682995 280.69568409 -49.44146729 275.11143494 C-49.44458727 274.11344944 -49.44770725 273.11546394 -49.45092177 272.08723646 C-49.4588946 268.74551606 -49.45258084 265.4039776 -49.44628906 262.06225586 C-49.44899922 259.66557204 -49.45256029 257.26888905 -49.45690918 254.87220764 C-49.46508466 249.03995314 -49.46388464 243.2077564 -49.4580839 237.37550014 C-49.45356487 232.63550229 -49.45295554 227.89551887 -49.45513153 223.15551949 C-49.45559123 222.1431221 -49.45559123 222.1431221 -49.45606022 221.11027225 C-49.45669967 219.7391221 -49.4573481 218.36797196 -49.4580054 216.99682183 C-49.46370637 204.14436628 -49.45715424 191.29193928 -49.44640467 178.43948842 C-49.43746733 167.41236276 -49.43902314 156.3852792 -49.44824219 145.3581543 C-49.45894544 132.54974965 -49.4631592 119.74137001 -49.45701766 106.93296152 C-49.45638057 105.56719594 -49.45575182 104.20143034 -49.45513153 102.83566475 C-49.45482298 102.16369533 -49.45451443 101.49172591 -49.45419653 100.79939378 C-49.4524699 96.06477771 -49.45538395 91.3301775 -49.46009064 86.59556389 C-49.46586005 80.22375661 -49.46187455 73.85202899 -49.45030212 67.48023033 C-49.44765349 65.13928103 -49.44842407 62.79832505 -49.45282745 60.45737839 C-49.45827616 57.26702164 -49.45145679 54.07692172 -49.44146729 50.88658142 C-49.44592873 49.95584696 -49.45039017 49.0251125 -49.45498681 48.06617397 C-49.40505277 39.86873455 -49.40505277 39.86873455 -47.1875 36.0625 C-43.60327704 33.67301803 -41.81517404 33.76016832 -37.55078125 33.6484375 C-36.25205078 33.60976562 -34.95332031 33.57109375 -33.61523438 33.53125 C-32.24349427 33.49979483 -30.87174939 33.46854749 -29.5 33.4375 C-28.11651215 33.39930803 -26.73304777 33.36025558 -25.34960938 33.3203125 C-21.9623755 33.22589483 -18.57514931 33.14031882 -15.1875 33.0625 C-15.1781543 32.23524414 -15.16880859 31.40798828 -15.15917969 30.55566406 C-15.10549681 26.80733585 -15.0218429 23.06025838 -14.9375 19.3125 C-14.92332031 18.01054688 -14.90914062 16.70859375 -14.89453125 15.3671875 C-14.86230469 14.11679688 -14.83007812 12.86640625 -14.796875 11.578125 C-14.77592773 10.42602539 -14.75498047 9.27392578 -14.73339844 8.08691406 C-14.07809377 4.45636206 -13.07697829 3.28770023 -10.1875 1.0625 C-6.62704823 -0.12431726 -3.74941663 -0.03439832 0 0 Z " fill="#121318" transform="translate(129.1875,80.9375)"/>
<path d="M0 0 C2.72977064 -0.08126109 5.4571017 -0.14061663 8.1875 -0.1875 C9.34088867 -0.22520508 9.34088867 -0.22520508 10.51757812 -0.26367188 C15.16229839 -0.32347514 18.28625625 -0.11227113 22 3 C24.12619427 6.33014413 24.29919233 9.17253912 24.4140625 13.078125 C24.45273437 14.23828125 24.49140625 15.3984375 24.53125 16.59375 C24.5621875 17.8003125 24.593125 19.006875 24.625 20.25 C24.66367187 21.47203125 24.70234375 22.6940625 24.7421875 23.953125 C24.83642108 26.9685994 24.92203455 29.98406828 25 33 C25.85754883 33.01458252 26.71509766 33.02916504 27.59863281 33.04418945 C30.78960413 33.10535478 33.97993587 33.17952762 37.17041016 33.26245117 C38.54952667 33.29564193 39.92877711 33.32369217 41.30810547 33.34643555 C43.29422306 33.38008642 45.27996559 33.43394729 47.265625 33.48828125 C48.45961914 33.51446533 49.65361328 33.54064941 50.88378906 33.56762695 C54.26966279 34.03741561 55.69269678 34.49744759 58 37 C59.42425467 41.79835691 59.14203096 46.79058581 59.13371277 51.74815369 C59.13597833 52.73641209 59.13824388 53.72467049 59.14057809 54.74287611 C59.14691331 58.05768121 59.14608903 61.37244537 59.14526367 64.68725586 C59.14825543 67.06246493 59.15165799 69.43767352 59.15544128 71.81288147 C59.16336446 77.59679701 59.16649582 83.38070011 59.16705366 89.16462081 C59.16752906 93.86601559 59.16958497 98.56740702 59.17275429 103.26880074 C59.18155854 116.60054959 59.18617394 129.93229041 59.18542381 143.26404219 C59.18538386 143.98249176 59.1853439 144.70094134 59.18530273 145.44116211 C59.18526185 146.16048951 59.18522097 146.87981692 59.18517885 147.62094212 C59.18477228 159.28219845 59.1943452 170.94342251 59.2084411 182.6046695 C59.22280326 194.58073049 59.2297114 206.55677574 59.22884732 218.53284556 C59.22851534 225.25558845 59.23126336 231.9782975 59.24202538 238.70103264 C59.25169011 245.02193529 59.25179668 251.34276635 59.24450874 257.66367149 C59.24346094 259.98485163 59.24583736 262.30603618 59.2518692 264.62720871 C59.2595642 267.79317813 59.25496074 270.95889877 59.24723816 274.12486267 C59.25238172 275.04558451 59.25752529 275.96630635 59.26282471 276.91492885 C59.2370963 281.68065672 58.8503892 285.52168471 57 290 C56.18636574 287.1453624 55.87673483 284.62049633 55.8825388 281.65590477 C55.88140232 280.35521051 55.88140232 280.35521051 55.88024288 279.02823961 C55.88451997 278.08019098 55.88879705 277.13214236 55.89320374 276.15536499 C55.8940388 274.63939899 55.8940388 274.63939899 55.89489073 273.09280741 C55.89793385 269.69645033 55.9081217 266.3001515 55.91821289 262.90380859 C55.92176796 260.47299766 55.92485423 258.04218599 55.92750549 255.6113739 C55.93406242 250.37251392 55.94354321 245.13366763 55.95540047 239.89481735 C55.97236934 232.3181367 55.98192757 224.74145993 55.9892792 217.16476448 C56.00122508 204.86927847 56.01617552 192.57379857 56.03442383 180.27832031 C56.03551395 179.54242509 56.03660407 178.80652987 56.03772723 178.04833479 C56.05334983 167.59647188 56.07194552 157.14461631 56.0917251 146.69276054 C56.09311842 145.95625894 56.09451173 145.21975733 56.09594727 144.4609375 C56.0973408 143.72533129 56.09873433 142.98972509 56.10017008 142.23182778 C56.12317979 129.98010154 56.13851096 117.72838007 56.14750665 105.47663558 C56.15336898 97.91567496 56.16576833 90.35477986 56.18647944 82.79384507 C56.20176814 77.00729317 56.20678684 71.22076868 56.20792198 65.43419838 C56.21007827 63.05489469 56.21569983 60.67559138 56.2249527 58.2963047 C56.23705249 55.06102182 56.23700159 51.82596611 56.23377991 48.59066772 C56.24028771 47.63815766 56.24679551 46.68564759 56.25350052 45.70427358 C56.24845242 44.41140257 56.24845242 44.41140257 56.24330235 43.09241295 C56.24460386 42.34501331 56.24590537 41.59761367 56.24724633 40.82756555 C56.15414346 38.75019387 56.15414346 38.75019387 54 37 C50.92439824 36.65999672 50.92439824 36.65999672 47.3125 36.65625 C46.65419189 36.6416272 45.99588379 36.62700439 45.31762695 36.61193848 C43.21181281 36.56538943 41.10609405 36.53121206 39 36.5 C36.22881317 36.45893134 33.45829917 36.40529694 30.6875 36.34375 C29.45386719 36.32505859 28.22023438 36.30636719 26.94921875 36.28710938 C24 36 24 36 22 34 C21.68115234 31.01904297 21.68115234 31.01904297 21.5859375 27.2421875 C21.56657135 26.57913605 21.5472052 25.91608459 21.5272522 25.23294067 C21.46744046 23.11375823 21.42106612 20.9945215 21.375 18.875 C21.33682155 17.43877831 21.29776989 16.00257955 21.2578125 14.56640625 C21.16173875 11.04448064 21.07771358 7.52238392 21 4 C15.94271772 2.63586465 11.24913584 1.70307099 6 1.375 C4.2984375 1.26285156 4.2984375 1.26285156 2.5625 1.1484375 C1.716875 1.09945312 0.87125 1.05046875 0 1 C0 0.67 0 0.34 0 0 Z " fill="#050508" transform="translate(435,81)"/>
<path d="M0 0 C13.65325612 1.18723966 26.93244754 9.0732799 36.58253765 18.53107643 C39.8444614 22.5184847 39.68624013 26.24264334 39.60127258 31.22543335 C39.60554471 32.14527563 39.60981683 33.06511791 39.61421841 34.01283419 C39.62244408 37.09027141 39.59496988 40.16634103 39.56762695 43.24365234 C39.5662164 45.45140552 39.56700861 47.65916103 39.56983948 49.86691284 C39.57127471 55.85830741 39.5418668 61.84920201 39.50696969 67.84048033 C39.47572454 74.10250028 39.47277688 80.36453155 39.46684265 86.62661743 C39.45306517 97.13641429 39.421829 107.64605647 39.37719727 118.15576172 C39.33128057 128.97932012 39.29589905 139.80282867 39.2746582 150.62646484 C39.27334459 151.29397551 39.27203097 151.96148618 39.27067754 152.64922445 C39.26415221 155.99803229 39.25783371 159.34684048 39.25161803 162.69564891 C39.19934773 190.46389368 39.11139477 218.23193393 39 246 C37.68 246 36.36 246 35 246 C35 245.34 35 244.68 35 244 C35.66 244 36.32 244 37 244 C37.0700504 215.54958873 37.12296874 187.09919036 37.15543652 158.64871025 C37.17091189 145.43895461 37.1920143 132.22925252 37.22631836 119.01953125 C37.2562001 107.50726986 37.27557012 95.99504725 37.28226548 84.48274815 C37.2861798 78.38587909 37.29539307 72.28912098 37.31719017 66.19228745 C37.33753585 60.45500432 37.34383763 54.71787798 37.33932304 48.98056221 C37.3401491 46.87384884 37.34612607 44.76713028 37.35761642 42.66044807 C37.37253033 39.78531029 37.36895746 36.91076537 37.36076355 34.03561401 C37.37387134 32.78365307 37.37387134 32.78365307 37.38724393 31.50639999 C37.34311209 25.78181378 36.30903561 21.54752755 32.3359375 17.1640625 C22.80718404 9.68531975 11.30457783 5.12000362 0 1 C0 0.67 0 0.34 0 0 Z " fill="#18191E" transform="translate(241,104)"/>
<path d="M0 0 C2.72977064 -0.08126109 5.4571017 -0.14061663 8.1875 -0.1875 C9.34088867 -0.22520508 9.34088867 -0.22520508 10.51757812 -0.26367188 C15.16229839 -0.32347514 18.28625625 -0.11227113 22 3 C24.12619427 6.33014413 24.29919233 9.17253912 24.4140625 13.078125 C24.45273437 14.23828125 24.49140625 15.3984375 24.53125 16.59375 C24.5621875 17.8003125 24.593125 19.006875 24.625 20.25 C24.66367187 21.47203125 24.70234375 22.6940625 24.7421875 23.953125 C24.83642108 26.9685994 24.92203455 29.98406828 25 33 C25.85754883 33.01458252 26.71509766 33.02916504 27.59863281 33.04418945 C30.78960413 33.10535478 33.97993587 33.17952762 37.17041016 33.26245117 C38.54952667 33.29564193 39.92877711 33.32369217 41.30810547 33.34643555 C43.29422306 33.38008642 45.27996559 33.43394729 47.265625 33.48828125 C48.45961914 33.51446533 49.65361328 33.54064941 50.88378906 33.56762695 C54.33159866 34.04600918 55.54353036 34.59180193 58 37 C58.49219131 39.36816692 58.49219131 39.36816692 58.48101807 42.22013855 C58.48651672 43.30127426 58.49201538 44.38240997 58.49768066 45.49630737 C58.48329956 46.68241608 58.46891846 47.86852478 58.45410156 49.09057617 C58.45468567 50.33947128 58.45526978 51.58836639 58.45587158 52.87510681 C58.45356028 56.30081688 58.43348497 59.72556576 58.40557575 63.15110564 C58.38059042 66.73053522 58.37822238 70.30997726 58.37347412 73.88948059 C58.36103583 80.66812056 58.32820293 87.44650285 58.28807616 94.22502929 C58.24338479 101.94196519 58.22137808 109.65891333 58.20129442 117.3759464 C58.15947084 133.25078023 58.08910251 149.1253569 58 165 C57.67 165 57.34 165 57 165 C56.99668985 164.35247332 56.99337971 163.70494663 56.98996925 163.03779793 C56.90882634 147.29796483 56.81676279 131.55823951 56.71247292 115.81854439 C56.66230423 108.20701237 56.61586192 100.59549136 56.578125 92.98388672 C56.54523253 86.3513085 56.50541674 79.7188146 56.45720994 73.08632934 C56.43191746 69.57293858 56.41014446 66.05960395 56.39665604 62.54614639 C56.38148633 58.62848153 56.35086282 54.71102233 56.31884766 50.79345703 C56.31668747 49.62245453 56.31452728 48.45145203 56.31230164 47.2449646 C56.30113815 46.18203186 56.28997467 45.11909912 56.2784729 44.0239563 C56.27294214 43.09663256 56.26741138 42.16930882 56.26171303 41.21388435 C56.20738404 38.79458071 56.20738404 38.79458071 54 37 C50.92439824 36.65999672 50.92439824 36.65999672 47.3125 36.65625 C46.65419189 36.6416272 45.99588379 36.62700439 45.31762695 36.61193848 C43.21181281 36.56538943 41.10609405 36.53121206 39 36.5 C36.22881317 36.45893134 33.45829917 36.40529694 30.6875 36.34375 C29.45386719 36.32505859 28.22023438 36.30636719 26.94921875 36.28710938 C24 36 24 36 22 34 C21.68115234 31.01904297 21.68115234 31.01904297 21.5859375 27.2421875 C21.56657135 26.57913605 21.5472052 25.91608459 21.5272522 25.23294067 C21.46744046 23.11375823 21.42106612 20.9945215 21.375 18.875 C21.33682155 17.43877831 21.29776989 16.00257955 21.2578125 14.56640625 C21.16173875 11.04448064 21.07771358 7.52238392 21 4 C15.94271772 2.63586465 11.24913584 1.70307099 6 1.375 C4.2984375 1.26285156 4.2984375 1.26285156 2.5625 1.1484375 C1.716875 1.09945312 0.87125 1.05046875 0 1 C0 0.67 0 0.34 0 0 Z " fill="#0D0D15" transform="translate(435,81)"/>
<path d="M0 0 C3.47951523 0.13818532 6.95850495 0.28682601 10.4375 0.4375 C11.92733398 0.49647461 11.92733398 0.49647461 13.44726562 0.55664062 C14.86362305 0.61948242 14.86362305 0.61948242 16.30859375 0.68359375 C17.18314209 0.72025146 18.05769043 0.75690918 18.95874023 0.79467773 C21 1 21 1 22 2 C22.09779295 4.60501536 22.12994636 7.18350022 22.12025452 9.78895569 C22.12110894 10.61468769 22.12196337 11.44041969 22.12284368 12.29117388 C22.12450102 15.0796355 22.11897299 17.86803799 22.11352539 20.65649414 C22.11324355 22.6467641 22.1134012 24.63703417 22.1139679 26.62730408 C22.11425598 32.0485686 22.10835746 37.4698112 22.10139394 42.8910706 C22.09516224 48.5498921 22.09455675 54.20871405 22.09336853 59.86753845 C22.09025467 70.59146492 22.08204054 81.31538125 22.07201904 92.03930324 C22.0608596 104.24465513 22.05534788 116.45000749 22.05032361 128.6553632 C22.03985797 153.77024777 22.02225748 178.88512332 22 204 C21.67 204 21.34 204 21 204 C21 137.67 21 71.34 21 3 C10.13007647 1.93297876 10.13007647 1.93297876 0 4 C0 2.68 0 1.36 0 0 Z " fill="#1E1F23" transform="translate(94,126)"/>
<path d="M0 0 C1.27230469 0.00902344 2.54460937 0.01804687 3.85546875 0.02734375 C5.31919922 0.04474609 5.31919922 0.04474609 6.8125 0.0625 C6.8125 0.3925 6.8125 0.7225 6.8125 1.0625 C6.01585937 1.18367188 5.21921875 1.30484375 4.3984375 1.4296875 C-3.56541091 2.59164042 -3.56541091 2.59164042 -11.1875 5.0625 C-12.55366579 7.79483158 -12.38571243 10.07440444 -12.46875 13.12890625 C-12.50613281 14.33611328 -12.54351562 15.54332031 -12.58203125 16.78710938 C-12.65245102 19.34960643 -12.72276319 21.91210644 -12.79296875 24.47460938 C-12.83035156 25.68052734 -12.86773437 26.88644531 -12.90625 28.12890625 C-12.93654297 29.24209229 -12.96683594 30.35527832 -12.99804688 31.50219727 C-13.1875 34.0625 -13.1875 34.0625 -14.1875 35.0625 C-16.21206532 35.1966159 -18.24097356 35.26610263 -20.26953125 35.30859375 C-21.51154297 35.34146484 -22.75355469 35.37433594 -24.03320312 35.40820312 C-26.66593406 35.46912797 -29.2987509 35.52645245 -31.93164062 35.58007812 C-33.80045898 35.63131836 -33.80045898 35.63131836 -35.70703125 35.68359375 C-37.42563354 35.72117798 -37.42563354 35.72117798 -39.17895508 35.75952148 C-42.47834904 35.91180613 -42.47834904 35.91180613 -46.1875 38.0625 C-46.5175 63.8025 -46.8475 89.5425 -47.1875 116.0625 C-47.5175 116.0625 -47.8475 116.0625 -48.1875 116.0625 C-48.81231497 97.78167697 -49.29989707 79.50183458 -49.36474609 61.20950317 C-49.37156111 59.49177369 -49.3817939 57.77405423 -49.39550781 56.05636597 C-49.41335043 53.64294699 -49.41766569 51.22988339 -49.41796875 48.81640625 C-49.42511398 48.10332306 -49.43225922 47.39023987 -49.43962097 46.6555481 C-49.42155682 42.69635433 -49.10463403 39.56042176 -47.1875 36.0625 C-43.60327704 33.67301803 -41.81517404 33.76016832 -37.55078125 33.6484375 C-36.25205078 33.60976562 -34.95332031 33.57109375 -33.61523438 33.53125 C-32.24349427 33.49979483 -30.87174939 33.46854749 -29.5 33.4375 C-28.11651215 33.39930803 -26.73304777 33.36025558 -25.34960938 33.3203125 C-21.9623755 33.22589483 -18.57514931 33.14031882 -15.1875 33.0625 C-15.1781543 32.23524414 -15.16880859 31.40798828 -15.15917969 30.55566406 C-15.10549681 26.80733585 -15.0218429 23.06025838 -14.9375 19.3125 C-14.92332031 18.01054688 -14.90914062 16.70859375 -14.89453125 15.3671875 C-14.86230469 14.11679688 -14.83007812 12.86640625 -14.796875 11.578125 C-14.77592773 10.42602539 -14.75498047 9.27392578 -14.73339844 8.08691406 C-14.07809377 4.45636206 -13.07697829 3.28770023 -10.1875 1.0625 C-6.62704823 -0.12431726 -3.74941663 -0.03439832 0 0 Z " fill="#08080E" transform="translate(129.1875,80.9375)"/>
<path d="M0 0 C21.14866469 -0.23360151 42.2971167 -0.40994273 63.44680977 -0.51812172 C73.26706187 -0.5696866 83.08651241 -0.63998488 92.90625 -0.75439453 C101.46520451 -0.85406728 110.02357859 -0.91858159 118.58309734 -0.94088495 C123.11569056 -0.95392328 127.64662333 -0.98455718 132.17868423 -1.05730057 C136.44571324 -1.12523443 140.71040021 -1.14610771 144.97791862 -1.13107681 C146.54293367 -1.13382581 148.10802775 -1.15369383 149.672575 -1.19205475 C154.25582829 -1.29890917 158.55639765 -1.2870782 163 0 C165.9987155 3.00094703 167.38011513 6.135431 169 10 C174.17802105 15.55690064 181.11260048 18.02636015 188 21 C185.52194251 21.90162733 184.28636292 22.09050849 181.73828125 21.28515625 C173.29015892 17.02708493 165.73210074 12.00094885 162 3 C159.18509736 1.59254868 156.83500951 1.8590337 153.68527222 1.84178162 C153.03019499 1.83684364 152.37511776 1.83190566 151.70018971 1.82681805 C149.49527884 1.81140501 147.29039717 1.80307219 145.08544922 1.79467773 C143.50881695 1.78510219 141.93218726 1.77509231 140.3555603 1.76467896 C136.06657582 1.73758868 131.77758029 1.71660148 127.48855734 1.69667697 C123.00953235 1.6748428 118.53054159 1.64744157 114.05154419 1.62062073 C105.56596373 1.57065903 97.08036432 1.52573312 88.59474671 1.48259836 C78.93585307 1.43325567 69.27699376 1.37832655 59.61813331 1.32291877 C39.74545417 1.20904536 19.87274228 1.10221802 0 1 C0 0.67 0 0.34 0 0 Z " fill="#1C1C22" transform="translate(87,373)"/>
<path d="M0 0 C0.33 0 0.66 0 1 0 C1.00331015 1.02705929 1.00662029 2.05411858 1.01003075 3.11230087 C1.09096148 28.08259559 1.18325747 53.05282849 1.28752708 78.02303696 C1.33768655 90.09835285 1.38412908 102.17366184 1.421875 114.24902344 C1.45477693 124.77173781 1.49459817 135.29439912 1.54279006 145.81705499 C1.56807292 151.39066614 1.58984894 156.96424201 1.60334396 162.5378952 C1.61614806 167.7810861 1.63818465 173.02415613 1.66738319 178.26728058 C1.67647189 180.19420569 1.6821522 182.12115026 1.68421364 184.0480957 C1.68752704 186.67427147 1.70297944 189.30010264 1.7215271 191.9262085 C1.71959237 192.69274679 1.71765763 193.45928508 1.71566427 194.24905181 C1.75522484 197.98304386 1.9169976 200.82992947 4 204 C0.125 202.25 0.125 202.25 -1 200 C-1.08354483 197.37960583 -1.10537075 194.78676288 -1.08229065 192.16671753 C-1.07906152 191.34829821 -1.07583239 190.52987889 -1.07250541 189.68665898 C-1.06038772 186.9289177 -1.04102379 184.17127394 -1.02172852 181.41357422 C-1.01159024 179.4428631 -1.00189608 177.47214966 -0.99261475 175.50143433 C-0.96608858 170.13805551 -0.93331835 164.77473055 -0.89946485 159.41139364 C-0.86516644 153.81131973 -0.83655808 148.2112169 -0.80735779 142.6111145 C-0.75116107 132.00053206 -0.68981366 121.38998583 -0.62663645 110.77944291 C-0.55497581 98.70225942 -0.48902566 86.62504688 -0.42356598 74.54782844 C-0.28875182 49.69851461 -0.14673127 24.84924611 0 0 Z " fill="#07080D" transform="translate(116,130)"/>
<path d="M0 0 C-3.21553945 2.14369297 -5.71401646 2.83700543 -9.4375 3.8125 C-23.69844031 7.78854406 -36.71597844 13.63554579 -47.80859375 23.55859375 C-50 25 -50 25 -51.9453125 24.99609375 C-54.82502557 23.60003513 -57.01005732 21.70566515 -59.4375 19.625 C-62.82911802 16.72868086 -66.10905686 14.18909687 -70 12 C-69.34 11.67 -68.68 11.34 -68 11 C-63.2468162 13.23778211 -58.65319638 16.01113725 -55.125 19.9375 C-54.42375 20.618125 -53.7225 21.29875 -53 22 C-49.65113818 21.63976387 -48.82976418 20.84137117 -46.25 18.4375 C-40.4398436 13.21842012 -33.0003745 10.2971558 -26 7 C-25.14792969 6.58492188 -24.29585938 6.16984375 -23.41796875 5.7421875 C-6.25290201 -2.34673078 -6.25290201 -2.34673078 0 0 Z " fill="#111117" transform="translate(337,90)"/>
<path d="M0 0 C1.27230469 0.00902344 2.54460937 0.01804687 3.85546875 0.02734375 C5.31919922 0.04474609 5.31919922 0.04474609 6.8125 0.0625 C6.8125 0.3925 6.8125 0.7225 6.8125 1.0625 C6.01585937 1.18367188 5.21921875 1.30484375 4.3984375 1.4296875 C-3.56541091 2.59164042 -3.56541091 2.59164042 -11.1875 5.0625 C-12.55366579 7.79483158 -12.38571243 10.07440444 -12.46875 13.12890625 C-12.50613281 14.33611328 -12.54351562 15.54332031 -12.58203125 16.78710938 C-12.65245102 19.34960643 -12.72276319 21.91210644 -12.79296875 24.47460938 C-12.83035156 25.68052734 -12.86773437 26.88644531 -12.90625 28.12890625 C-12.93654297 29.24209229 -12.96683594 30.35527832 -12.99804688 31.50219727 C-13.1875 34.0625 -13.1875 34.0625 -14.1875 35.0625 C-16.21206532 35.1966159 -18.24097356 35.26610263 -20.26953125 35.30859375 C-21.51154297 35.34146484 -22.75355469 35.37433594 -24.03320312 35.40820312 C-26.66593406 35.46912797 -29.2987509 35.52645245 -31.93164062 35.58007812 C-33.80045898 35.63131836 -33.80045898 35.63131836 -35.70703125 35.68359375 C-37.42563354 35.72117798 -37.42563354 35.72117798 -39.17895508 35.75952148 C-42.08290594 36.05196675 -43.77462084 36.46295089 -46.1875 38.0625 C-47.45554566 40.0960948 -47.45554566 40.0960948 -48.1875 42.0625 C-48.4375 39.75 -48.4375 39.75 -48.1875 37.0625 C-44.9158769 33.70623142 -42.00394021 33.65057983 -37.453125 33.55078125 C-35.50986328 33.49760742 -35.50986328 33.49760742 -33.52734375 33.44335938 C-32.16406774 33.42026133 -30.80078636 33.39747886 -29.4375 33.375 C-28.05856138 33.34181352 -26.6796535 33.30732262 -25.30078125 33.27148438 C-21.92976941 33.18897709 -18.55901872 33.11983229 -15.1875 33.0625 C-15.1781543 32.23524414 -15.16880859 31.40798828 -15.15917969 30.55566406 C-15.10549681 26.80733585 -15.0218429 23.06025838 -14.9375 19.3125 C-14.92332031 18.01054688 -14.90914062 16.70859375 -14.89453125 15.3671875 C-14.86230469 14.11679688 -14.83007812 12.86640625 -14.796875 11.578125 C-14.77592773 10.42602539 -14.75498047 9.27392578 -14.73339844 8.08691406 C-14.07809377 4.45636206 -13.07697829 3.28770023 -10.1875 1.0625 C-6.62704823 -0.12431726 -3.74941663 -0.03439832 0 0 Z " fill="#1A1B21" transform="translate(129.1875,80.9375)"/>
<path d="M0 0 C7.66295172 0.40263435 14.42897902 1.73461598 21.6875 4.1875 C23.10228638 4.65397949 23.10228638 4.65397949 24.5456543 5.12988281 C27.36975973 6.06989657 30.18574536 7.03093588 33 8 C33.84079102 8.28633301 34.68158203 8.57266602 35.54785156 8.86767578 C37.80927307 9.64466521 40.06226832 10.44124591 42.3125 11.25 C42.98176514 11.48356201 43.65103027 11.71712402 44.34057617 11.95776367 C46.17578125 12.640625 46.17578125 12.640625 49 14 C49.495 15.485 49.495 15.485 50 17 C45.54319422 15.5536478 41.1112816 14.07162507 36.73828125 12.38671875 C24.69358576 7.7495584 12.49900171 4.19890608 0 1 C0 0.67 0 0.34 0 0 Z " fill="#13161B" transform="translate(219,342)"/>
<path d="M0 0 C0 0.66 0 1.32 0 2 C-0.87398438 2.21914063 -1.74796875 2.43828125 -2.6484375 2.6640625 C-10.94196664 4.80264549 -19.03357567 7.25468245 -27.09521484 10.15673828 C-32.67876234 12.10707922 -32.67876234 12.10707922 -36 11 C-30.05336421 8.13680499 -24.00180556 5.89979434 -17.75 3.8125 C-16.96963379 3.55065918 -16.18926758 3.28881836 -15.38525391 3.01904297 C-10.16825604 1.30093704 -5.54077018 0 0 0 Z " fill="#12121A" transform="translate(341,332)"/>
<path d="M0 0 C4.50384586 1.50128195 6.82707533 4.99232106 9 9 C12.56122428 17.50736911 12.30010856 24.64152683 9.1875 33.24609375 C8.51406855 34.8552064 7.76613575 36.43290414 7 38 C5.74522029 34.23566087 6.87892562 32.78301929 8.28515625 29.23828125 C10.50253398 22.29534441 8.88833637 15.49571006 6 9 C3.72808279 4.810558 3.72808279 4.810558 0 2 C0 1.34 0 0.68 0 0 Z " fill="#131418" transform="translate(462,269)"/>
<path d="M0 0 C2.625 -0.625 2.625 -0.625 6 0 C7.76374847 2.37427679 9.10269061 4.87423407 10.52734375 7.46484375 C14.96557854 15.10520019 23.23574808 17.64777847 31 21 C28.52194251 21.90162733 27.28636292 22.09050849 24.73828125 21.28515625 C15.99614815 16.87889593 9.26486047 11.95620699 5 3 C2.44278263 1.57442644 2.44278263 1.57442644 0 1 C0 0.67 0 0.34 0 0 Z " fill="#14141C" transform="translate(244,373)"/>
<path d="M0 0 C12.36002172 1.0747845 23.24043948 7.73224216 33 15 C32.34 15.33 31.68 15.66 31 16 C28.82894422 14.85542666 26.77237053 13.66131416 24.6875 12.375 C18.86068902 8.89714594 13.14466675 6.29099088 6.7421875 4.0078125 C4.38600664 3.14186569 2.21370103 2.17569768 0 1 C0 0.67 0 0.34 0 0 Z " fill="#0F0F18" transform="translate(241,104)"/>
<path d="M0 0 C9.37380324 -0.35372842 18.09565726 1.68494911 27.125 4 C27.78894775 4.1659668 28.45289551 4.33193359 29.13696289 4.50292969 C30.77617678 4.93845618 32.39137266 5.46239086 34 6 C34.495 6.99 34.495 6.99 35 8 C27.52755549 7.26209611 20.31420182 5.60192502 13 3.9375 C11.74832031 3.65583984 10.49664062 3.37417969 9.20703125 3.08398438 C6.13724235 2.39269604 3.06828108 1.69794475 0 1 C0 0.67 0 0.34 0 0 Z " fill="#13131A" transform="translate(205,96)"/>
<path d="M0 0 C2.94956528 1.36944102 5.52468811 2.87830409 8 5 C8 5.66 8 6.32 8 7 C8.556875 7.268125 9.11375 7.53625 9.6875 7.8125 C12 9 12 9 14.375 10.6875 C17.80297478 12.40148739 19.3713805 12.13394359 23 11 C25.82865928 9.0554473 25.82865928 9.0554473 28 7 C28.66 7.33 29.32 7.66 30 8 C28.6436006 9.20870258 27.26392171 10.39131354 25.875 11.5625 C25.10929687 12.22378906 24.34359375 12.88507813 23.5546875 13.56640625 C21 15 21 15 18.046875 14.98828125 C14.39337499 13.80323574 12.26613994 12.14151336 9.375 9.625 C8.45460938 8.83351563 7.53421875 8.04203125 6.5859375 7.2265625 C5.73257812 6.49179687 4.87921875 5.75703125 4 5 C3.22914063 4.45085937 2.45828125 3.90171875 1.6640625 3.3359375 C1.11492187 2.89507812 0.56578125 2.45421875 0 2 C0 1.34 0 0.68 0 0 Z " fill="#12121A" transform="translate(403,340)"/>
<path d="M0 0 C-0.53890869 0.19110352 -1.07781738 0.38220703 -1.63305664 0.57910156 C-4.11203241 1.46257057 -6.58723012 2.35620321 -9.0625 3.25 C-9.91005859 3.55035156 -10.75761719 3.85070312 -11.63085938 4.16015625 C-15.61747574 5.60703632 -19.30868277 7.080539 -22.93359375 9.296875 C-23.94550781 9.85890625 -24.95742188 10.4209375 -26 11 C-26.99 10.67 -27.98 10.34 -29 10 C-23.33037718 6.1179759 -17.61063089 3.26022811 -11.125 1.0625 C-10.48296631 0.83925049 -9.84093262 0.61600098 -9.17944336 0.38598633 C-5.66853481 -0.74866186 -3.50253426 -1.07289561 0 0 Z " fill="#13141B" transform="translate(325,351)"/>
<path d="M0 0 C4.23584802 1.52880032 6.27429909 4.67446853 8.8125 8.1875 C12.55086355 13.21852326 16.4073796 17.70689832 21 22 C18 22 18 22 15.80078125 20.19921875 C0 4.24960754 0 4.24960754 0 0 Z " fill="#131519" transform="translate(381,316)"/>
<path d="M0 0 C5.16047456 0.60160973 9.83163578 1.71911786 14.75 3.375 C15.73806641 3.68824219 15.73806641 3.68824219 16.74609375 4.0078125 C20.16209058 5.14416844 22.74370985 6.12070436 25 9 C8.46296296 5.12962963 8.46296296 5.12962963 1 2 C0.67 1.34 0.34 0.68 0 0 Z " fill="#111119" transform="translate(235,89)"/>
<path d="M0 0 C9.73331009 0.36868599 18.65804514 2.45111638 28 5 C28 5.33 28 5.66 28 6 C22.11933838 6.33286764 17.40504426 5.46267715 11.765625 3.80078125 C7.87947624 2.67555456 3.95592563 1.84306612 0 1 C0 0.67 0 0.34 0 0 Z " fill="#111117" transform="translate(207,327)"/>
<path d="M0 0 C3.67639557 1.13119864 7.05377626 2.50229076 10.5 4.1875 C15.6240362 6.50019419 18.67365274 5.85973703 23.875 3.9375 C24.926875 3.4734375 24.926875 3.4734375 26 3 C22.53632938 6.57912631 21.12054092 7.85770909 16.0625 8.5 C9.67587672 8.48959833 4.88556934 4.80800451 0 1 C0 0.67 0 0.34 0 0 Z " fill="#14141A" transform="translate(270,359)"/>
<path d="M0 0 C6.93 0.33 13.86 0.66 21 1 C19 3 19 3 15.15625 3.16015625 C13.60399032 3.13752468 12.05185518 3.10454534 10.5 3.0625 C5.09080154 2.67248968 5.09080154 2.67248968 0 4 C0 2.68 0 1.36 0 0 Z " fill="#111117" transform="translate(94,126)"/>
<path d="M0 0 C0 0.33 0 0.66 0 1 C-3.28877364 1.86558386 -6.5813935 2.71550842 -9.875 3.5625 C-10.81214844 3.80935547 -11.74929688 4.05621094 -12.71484375 4.31054688 C-13.61074219 4.53935547 -14.50664062 4.76816406 -15.4296875 5.00390625 C-16.25710449 5.21861572 -17.08452148 5.4333252 -17.93701172 5.65454102 C-20 6 -20 6 -22 5 C-16.62332124 -0.37667876 -7.16117359 -0.35218886 0 0 Z " fill="#13141A" transform="translate(348,344)"/>
<path d="M0 0 C1.27230469 0.00902344 2.54460937 0.01804687 3.85546875 0.02734375 C5.31919922 0.04474609 5.31919922 0.04474609 6.8125 0.0625 C6.8125 0.3925 6.8125 0.7225 6.8125 1.0625 C6.01585937 1.18367188 5.21921875 1.30484375 4.3984375 1.4296875 C-5.16329243 2.46861823 -5.16329243 2.46861823 -13.1875 7.0625 C-13.5175 6.4025 -13.8475 5.7425 -14.1875 5.0625 C-9.61912696 0.17906675 -6.5874871 -0.06043566 0 0 Z " fill="#14131A" transform="translate(129.1875,80.9375)"/>
<path d="M0 0 C2.72977064 -0.08126109 5.4571017 -0.14061663 8.1875 -0.1875 C9.34088867 -0.22520508 9.34088867 -0.22520508 10.51757812 -0.26367188 C15.17364611 -0.32362125 18.23225223 -0.06129506 22 3 C22.8125 5.1875 22.8125 5.1875 23 7 C22.34 6.67 21.68 6.34 21 6 C21 5.34 21 4.68 21 4 C14.04567778 1.95461111 7.22124213 1.41830366 0 1 C0 0.67 0 0.34 0 0 Z " fill="#16161B" transform="translate(435,81)"/>
<path d="M0 0 C0.99 0.33 1.98 0.66 3 1 C2.45730469 1.45890625 1.91460937 1.9178125 1.35546875 2.390625 C0.64003906 3.00421875 -0.07539063 3.6178125 -0.8125 4.25 C-1.52019531 4.85328125 -2.22789062 5.4565625 -2.95703125 6.078125 C-4.91889671 7.92370398 -6.45669625 9.79945332 -8 12 C-8.66 11.67 -9.32 11.34 -10 11 C-9.09066991 9.72390677 -8.17217147 8.45434447 -7.25 7.1875 C-6.73953125 6.47980469 -6.2290625 5.77210938 -5.703125 5.04296875 C-3.93879011 2.92657621 -2.37221637 1.40558489 0 0 Z " fill="#111118" transform="translate(384,266)"/>
<path d="M0 0 C0.66 0.33 1.32 0.66 2 1 C-1.66970387 11.74259681 -1.66970387 11.74259681 -7 15 C-6.71253906 14.44699219 -6.42507813 13.89398438 -6.12890625 13.32421875 C-4.5182762 10.0082157 -3.23512815 6.57959444 -1.90234375 3.14453125 C-1 1 -1 1 0 0 Z " fill="#15151D" transform="translate(315,361)"/>
<path d="M0 0 C-0.33 0.66 -0.66 1.32 -1 2 C-3.50390625 2.6328125 -3.50390625 2.6328125 -6.5625 3.125 C-8.08037109 3.37636719 -8.08037109 3.37636719 -9.62890625 3.6328125 C-10.80259766 3.81457031 -10.80259766 3.81457031 -12 4 C-12 3.34 -12 2.68 -12 2 C-7.8803623 0.70756464 -4.33168317 -0.26252625 0 0 Z " fill="#121216" transform="translate(350,86)"/>
<path d="M0 0 C0.86625 0.495 0.86625 0.495 1.75 1 C4.19883862 2.27075898 4.19883862 2.27075898 8 2 C8.33 2.66 8.66 3.32 9 4 C8.67 4.66 8.34 5.32 8 6 C6.35 5.67 4.7 5.34 3 5 C3 4.34 3 3.68 3 3 C2.01 2.67 1.02 2.34 0 2 C0 1.34 0 0.68 0 0 Z " fill="#101015" transform="translate(416,269)"/>
<path d="M0 0 C0 0.66 0 1.32 0 2 C-5.445 4.475 -5.445 4.475 -11 7 C-11 6.34 -11 5.68 -11 5 C-2.29032258 0 -2.29032258 0 0 0 Z " fill="#131316" transform="translate(437,264)"/>
<path d="M0 0 C0.33 0 0.66 0 1 0 C1.07347656 1.01320313 1.07347656 1.01320313 1.1484375 2.046875 C1.22320312 2.93890625 1.29796875 3.8309375 1.375 4.75 C1.44460937 5.63171875 1.51421875 6.5134375 1.5859375 7.421875 C1.99850055 9.99066382 2.71160957 11.75841015 4 14 C0.125 12.25 0.125 12.25 -1 10 C-0.9129796 8.28766312 -0.75902838 6.57824594 -0.5625 4.875 C-0.46066406 3.96492188 -0.35882813 3.05484375 -0.25390625 2.1171875 C-0.17011719 1.41851562 -0.08632812 0.71984375 0 0 Z " fill="#0D0E14" transform="translate(116,320)"/>
<path d="M0 0 C3.82946843 1.45255699 5.12050295 3.42895561 7 7 C6.01 7.495 6.01 7.495 5 8 C4.54625 7.195625 4.0925 6.39125 3.625 5.5625 C2.25274335 2.91143428 2.25274335 2.91143428 0 2 C0 1.34 0 0.68 0 0 Z " fill="#0B0B10" transform="translate(462,269)"/>
<path d="" fill="#000000" transform="translate(0,0)"/>
<path d="" fill="#000000" transform="translate(0,0)"/>
<path d="" fill="#000000" transform="translate(0,0)"/>
<path d="" fill="#000000" transform="translate(0,0)"/>
<path d="" fill="#000000" transform="translate(0,0)"/>
<path d="" fill="#000000" transform="translate(0,0)"/>
<path d="" fill="#000000" transform="translate(0,0)"/>
<path d="" fill="#000000" transform="translate(0,0)"/>
<path d="" fill="#000000" transform="translate(0,0)"/>
<path d="" fill="#000000" transform="translate(0,0)"/>
<path d="" fill="#000000" transform="translate(0,0)"/>
<path d="" fill="#000000" transform="translate(0,0)"/>
<path d="" fill="#000000" transform="translate(0,0)"/>
<path d="" fill="#000000" transform="translate(0,0)"/>
<path d="" fill="#000000" transform="translate(0,0)"/>
<path d="" fill="#000000" transform="translate(0,0)"/>
<path d="" fill="#000000" transform="translate(0,0)"/>
<path d="" fill="#000000" transform="translate(0,0)"/>
<path d="" fill="#000000" transform="translate(0,0)"/>
<path d="" fill="#000000" transform="translate(0,0)"/>
<path d="" fill="#000000" transform="translate(0,0)"/>
<path d="" fill="#000000" transform="translate(0,0)"/>
<path d="" fill="#000000" transform="translate(0,0)"/>
<path d="" fill="#000000" transform="translate(0,0)"/>
<path d="" fill="#000000" transform="translate(0,0)"/>
<path d="" fill="#000000" transform="translate(0,0)"/>
<path d="" fill="#000000" transform="translate(0,0)"/>
<path d="" fill="#000000" transform="translate(0,0)"/>
<path d="" fill="#000000" transform="translate(0,0)"/>
<path d="" fill="#000000" transform="translate(0,0)"/>
<path d="" fill="#000000" transform="translate(0,0)"/>
<path d="" fill="#000000" transform="translate(0,0)"/>
<path d="" fill="#000000" transform="translate(0,0)"/>
<path d="" fill="#000000" transform="translate(0,0)"/>
<path d="" fill="#000000" transform="translate(0,0)"/>
<path d="" fill="#000000" transform="translate(0,0)"/>
<path d="" fill="#000000" transform="translate(0,0)"/>
<path d="" fill="#000000" transform="translate(0,0)"/>
<path d="" fill="#000000" transform="translate(0,0)"/>
<path d="" fill="#000000" transform="translate(0,0)"/>
<path d="" fill="#000000" transform="translate(0,0)"/>
<path d="" fill="#000000" transform="translate(0,0)"/>
<path d="" fill="#000000" transform="translate(0,0)"/>
<path d="" fill="#000000" transform="translate(0,0)"/>
<path d="" fill="#000000" transform="translate(0,0)"/>
<path d="" fill="#000000" transform="translate(0,0)"/>
<path d="" fill="#000000" transform="translate(0,0)"/>
<path d="" fill="#000000" transform="translate(0,0)"/>
<path d="" fill="#000000" transform="translate(0,0)"/>
<path d="" fill="#000000" transform="translate(0,0)"/>
<path d="" fill="#000000" transform="translate(0,0)"/>
<path d="" fill="#000000" transform="translate(0,0)"/>
<path d="" fill="#000000" transform="translate(0,0)"/>
<path d="" fill="#000000" transform="translate(0,0)"/>
<path d="" fill="#000000" transform="translate(0,0)"/>
<path d="" fill="#000000" transform="translate(0,0)"/>
<path d="" fill="#000000" transform="translate(0,0)"/>
<path d="" fill="#000000" transform="translate(0,0)"/>
<path d="" fill="#000000" transform="translate(0,0)"/>
<path d="" fill="#000000" transform="translate(0,0)"/>
<path d="" fill="#000000" transform="translate(0,0)"/>
<path d="" fill="#000000" transform="translate(0,0)"/>
<path d="" fill="#000000" transform="translate(0,0)"/>
<path d="" fill="#000000" transform="translate(0,0)"/>
<path d="" fill="#000000" transform="translate(0,0)"/>
<path d="" fill="#000000" transform="translate(0,0)"/>
<path d="" fill="#000000" transform="translate(0,0)"/>
<path d="" fill="#000000" transform="translate(0,0)"/>
<path d="" fill="#000000" transform="translate(0,0)"/>
<path d="" fill="#000000" transform="translate(0,0)"/>
<path d="" fill="#000000" transform="translate(0,0)"/>
<path d="" fill="#000000" transform="translate(0,0)"/>
<path d="" fill="#000000" transform="translate(0,0)"/>
<path d="" fill="#000000" transform="translate(0,0)"/>
<path d="" fill="#000000" transform="translate(0,0)"/>
<path d="" fill="#000000" transform="translate(0,0)"/>
<path d="" fill="#000000" transform="translate(0,0)"/>
<path d="" fill="#000000" transform="translate(0,0)"/>
<path d="" fill="#000000" transform="translate(0,0)"/>
<path d="" fill="#000000" transform="translate(0,0)"/>
<path d="" fill="#000000" transform="translate(0,0)"/>
<path d="" fill="#000000" transform="translate(0,0)"/>
<path d="" fill="#000000" transform="translate(0,0)"/>
<path d="" fill="#000000" transform="translate(0,0)"/>
</svg>
